<svg width="0" height="0" class="hidden">
  <symbol fill="none" xmlns="http://www.w3.org/2000/svg" viewBox="0 0 25 25" id="submenu_icon-5">
    <path d="M1.528 23.608C1.36 23.608 1.24 23.56 1.144 23.488C1.048 23.416 1 23.296 1 23.176C1 22.552 1.096 21.952 1.288 21.376C1.48 20.8 1.744 20.296 2.104 19.816C2.464 19.336 2.896 18.904 3.376 18.544C3.88 18.184 4.456 17.872 5.08 17.656L7.528 16.84C7.624 16.816 7.696 16.816 7.792 16.84C7.888 16.864 7.96 16.912 8.032 16.96C8.632 17.632 9.28 18.136 10.024 18.472C10.768 18.808 11.512 19 12.304 19C13.096 19 13.84 18.832 14.584 18.472C15.328 18.136 15.976 17.608 16.576 16.96C16.648 16.912 16.72 16.864 16.816 16.84C16.912 16.816 16.984 16.816 17.08 16.84L19.528 17.656C20.152 17.872 20.728 18.184 21.232 18.544C21.736 18.904 22.168 19.336 22.504 19.816C22.864 20.296 23.128 20.824 23.32 21.376C23.512 21.952 23.608 22.552 23.608 23.176C23.608 23.32 23.56 23.416 23.488 23.488C23.416 23.56 23.296 23.608 23.176 23.608H1.528ZM22.672 22.672C22.576 21.736 22.24 20.896 21.64 20.152C21.04 19.408 20.224 18.88 19.216 18.544L17.08 17.776C16.432 18.448 15.712 18.952 14.896 19.312C14.08 19.672 13.24 19.864 12.352 19.864C11.464 19.864 10.624 19.672 9.808 19.312C8.992 18.952 8.248 18.448 7.552 17.776L5.416 18.544C4.432 18.88 3.64 19.432 3.016 20.152C2.392 20.896 2.032 21.736 1.96 22.672H22.672ZM15.4 7.48C15.16 7.408 14.92 7.312 14.68 7.192C14.56 7.12 14.488 7.024 14.44 6.904C14.392 6.784 14.416 6.664 14.488 6.568C14.536 6.448 14.632 6.376 14.776 6.328C14.92 6.28 15.016 6.304 15.112 6.376C15.304 6.472 15.472 6.52 15.64 6.568C15.808 6.616 15.976 6.616 16.12 6.616C16.648 6.616 17.104 6.424 17.464 6.064C17.824 5.704 18.016 5.248 18.016 4.72C18.016 4.168 17.824 3.712 17.464 3.352C17.104 2.992 16.648 2.8 16.12 2.8C15.952 2.8 15.808 2.824 15.64 2.848C15.496 2.896 15.328 2.944 15.16 3.064C15.064 3.112 14.968 3.136 14.848 3.112C14.728 3.088 14.632 3.016 14.536 2.944C14.248 2.608 13.912 2.344 13.528 2.152C13.144 1.96 12.736 1.864 12.328 1.864C11.92 1.864 11.512 1.96 11.104 2.152C10.696 2.344 10.384 2.608 10.12 2.944C10.072 3.04 9.976 3.088 9.856 3.112C9.736 3.136 9.616 3.136 9.496 3.064C9.328 2.968 9.184 2.896 9.016 2.848C8.872 2.8 8.704 2.8 8.536 2.8C8.008 2.8 7.552 2.992 7.192 3.352C6.832 3.712 6.64 4.168 6.64 4.72C6.64 5.248 6.832 5.704 7.192 6.064C7.552 6.424 8.008 6.616 8.536 6.616C8.704 6.616 8.848 6.592 9.016 6.568C9.16 6.52 9.328 6.472 9.496 6.376C9.64 6.304 9.76 6.28 9.856 6.328C9.976 6.376 10.048 6.448 10.12 6.568C10.192 6.712 10.216 6.832 10.168 6.928C10.12 7.048 10.048 7.12 9.928 7.216C9.712 7.336 9.472 7.432 9.232 7.504C8.992 7.576 8.728 7.6 8.464 7.6C7.672 7.6 7.024 7.312 6.472 6.76C5.92 6.208 5.632 5.536 5.632 4.768C5.632 3.976 5.92 3.304 6.472 2.752C7.024 2.2 7.696 1.936 8.464 1.936C8.656 1.936 8.848 1.96 9.04 1.984C9.232 2.008 9.4 2.056 9.568 2.128C9.928 1.792 10.36 1.504 10.84 1.312C11.32 1.096 11.824 1 12.328 1C12.832 1 13.312 1.096 13.792 1.312C14.272 1.528 14.68 1.792 15.016 2.128C15.184 2.08 15.352 2.032 15.544 1.984C15.736 1.96 15.928 1.936 16.12 1.936C16.912 1.936 17.56 2.2 18.112 2.752C18.664 3.304 18.952 3.976 18.952 4.768C18.952 5.56 18.664 6.208 18.112 6.76C17.56 7.312 16.888 7.6 16.12 7.6C15.904 7.576 15.64 7.528 15.4 7.48ZM10.672 17.608C10.12 17.368 9.616 17.056 9.16 16.648C8.704 16.24 8.296 15.736 7.96 15.16C7.624 14.584 7.336 13.936 7.12 13.24C6.736 13.216 6.4 12.976 6.136 12.52C5.872 12.064 5.728 11.536 5.728 10.888C5.728 10.36 5.824 9.88 5.992 9.472C6.16 9.064 6.4 8.776 6.688 8.608C6.688 8.464 6.688 8.368 6.688 8.248C6.688 8.152 6.688 8.08 6.688 8.032C6.688 7.912 6.736 7.792 6.832 7.696C6.928 7.6 7.048 7.552 7.216 7.552C7.36 7.552 7.48 7.6 7.576 7.696C7.672 7.792 7.72 7.912 7.72 8.056C7.72 8.128 7.72 8.272 7.72 8.512C7.72 8.752 7.744 8.896 7.768 8.944C7.768 9.016 7.768 9.088 7.744 9.136C7.72 9.184 7.696 9.256 7.672 9.304C7.6 9.376 7.528 9.424 7.48 9.424C7.432 9.424 7.36 9.424 7.312 9.424C7.168 9.448 7.048 9.592 6.928 9.856C6.808 10.096 6.736 10.456 6.736 10.864C6.736 11.296 6.808 11.656 6.928 11.896C7.048 12.136 7.168 12.256 7.24 12.256C7.288 12.232 7.36 12.208 7.456 12.184C7.528 12.16 7.624 12.16 7.696 12.184C7.744 12.208 7.816 12.256 7.864 12.328C7.912 12.376 7.96 12.448 8.008 12.496C8.344 13.816 8.92 14.896 9.736 15.736C10.552 16.552 11.464 16.984 12.472 16.984C13.48 16.984 14.392 16.576 15.184 15.76C16 14.944 16.576 13.864 16.936 12.496C16.96 12.448 17.008 12.376 17.032 12.328C17.08 12.28 17.128 12.232 17.176 12.184C17.224 12.16 17.32 12.136 17.392 12.16C17.488 12.16 17.56 12.208 17.608 12.256C17.656 12.256 17.776 12.136 17.896 11.896C18.04 11.656 18.112 11.32 18.112 10.864C18.112 10.432 18.064 10.096 17.944 9.856C17.824 9.616 17.728 9.496 17.68 9.496C17.632 9.496 17.56 9.472 17.488 9.448C17.416 9.424 17.368 9.4 17.296 9.352C17.248 9.304 17.2 9.232 17.176 9.16C17.152 9.088 17.152 9.04 17.152 8.968C17.152 8.92 17.152 8.776 17.176 8.536C17.2 8.296 17.2 8.152 17.2 8.08C17.2 7.96 17.248 7.84 17.344 7.744C17.44 7.648 17.56 7.6 17.728 7.6C17.872 7.6 17.992 7.648 18.088 7.744C18.184 7.84 18.232 7.96 18.232 8.104C18.232 8.176 18.232 8.272 18.232 8.392C18.232 8.512 18.232 8.632 18.232 8.752C18.52 8.896 18.736 9.184 18.904 9.592C19.072 10 19.168 10.456 19.168 10.96C19.168 11.632 19.048 12.184 18.784 12.64C18.52 13.096 18.208 13.312 17.8 13.312C17.56 13.984 17.224 14.608 16.84 15.184C16.456 15.76 16.024 16.24 15.568 16.648C15.112 17.056 14.608 17.368 14.056 17.608C13.504 17.848 12.952 17.944 12.376 17.944C11.8 17.944 11.224 17.848 10.672 17.608ZM8.368 8.968C7.456 8.656 6.976 8.464 6.952 8.416C6.904 8.392 6.832 8.344 6.784 8.272C6.736 8.2 6.712 8.128 6.712 8.056V6.616C6.712 6.472 6.76 6.376 6.856 6.256C6.952 6.16 7.072 6.112 7.24 6.112C7.384 6.112 7.504 6.16 7.6 6.256C7.696 6.352 7.744 6.472 7.744 6.64V7.768C7.984 7.864 8.512 8.032 9.304 8.224C10.096 8.416 11.104 8.512 12.352 8.512C13.6 8.512 14.632 8.416 15.448 8.224C16.264 8.032 16.792 7.864 17.08 7.768V6.64C17.08 6.496 17.128 6.4 17.224 6.28C17.32 6.184 17.44 6.136 17.608 6.136C17.776 6.136 17.896 6.184 17.944 6.28C18.016 6.376 18.04 6.496 18.04 6.64V8.08C18.04 8.176 18.016 8.272 17.968 8.344C17.92 8.416 17.872 8.464 17.8 8.536C17.752 8.536 17.272 8.704 16.384 9.016C15.472 9.328 14.152 9.496 12.4 9.496C10.6 9.448 9.28 9.304 8.368 8.968ZM7.672 17.704C7.648 17.704 7.624 17.68 7.576 17.656C7.432 17.608 7.36 17.512 7.336 17.392C7.312 17.272 7.312 17.152 7.384 17.008L8.2 15.376C8.272 15.256 8.368 15.184 8.488 15.16C8.608 15.136 8.728 15.136 8.848 15.208C8.968 15.256 9.04 15.352 9.088 15.472C9.136 15.592 9.112 15.712 9.04 15.832L8.224 17.464C8.176 17.536 8.104 17.608 8.008 17.656C7.936 17.704 7.84 17.728 7.768 17.728C7.72 17.704 7.696 17.704 7.672 17.704ZM9.04 4.744H9.088C8.92 4.744 8.8 4.696 8.704 4.576C8.608 4.456 8.56 4.36 8.56 4.24C8.56 4.216 8.608 4 8.704 3.568C8.8 3.16 9.04 2.752 9.448 2.344C9.544 2.248 9.664 2.2 9.808 2.2C9.952 2.2 10.048 2.248 10.144 2.344C10.24 2.44 10.288 2.536 10.288 2.68C10.288 2.824 10.24 2.92 10.144 3.04C9.856 3.328 9.688 3.736 9.592 4.312C9.568 4.432 9.496 4.528 9.424 4.624C9.328 4.72 9.232 4.768 9.088 4.768H9.04V4.744ZM9.712 14.872C9.52 14.8 9.352 14.68 9.208 14.488C9.112 14.392 9.064 14.272 9.064 14.128C9.064 13.984 9.112 13.888 9.208 13.768C9.304 13.672 9.4 13.624 9.544 13.624C9.688 13.624 9.808 13.672 9.88 13.768C10.048 13.936 10.216 14.008 10.408 13.96C10.6 13.936 10.864 13.816 11.224 13.576C11.416 13.48 11.608 13.384 11.8 13.288C11.992 13.192 12.184 13.144 12.376 13.144C12.52 13.144 12.616 13.192 12.736 13.288C12.832 13.384 12.88 13.504 12.88 13.672C12.88 13.816 12.832 13.936 12.736 14.032C12.64 14.128 12.52 14.176 12.376 14.176C12.328 14.176 12.208 14.224 12.088 14.296C11.944 14.368 11.824 14.44 11.704 14.512C11.536 14.608 11.344 14.704 11.104 14.824C10.864 14.944 10.6 14.992 10.312 14.992C10.096 14.992 9.904 14.944 9.712 14.872ZM10.048 11.344C9.904 11.344 9.808 11.296 9.688 11.2C9.592 11.104 9.544 10.984 9.544 10.84C9.544 10.672 9.592 10.552 9.688 10.456C9.784 10.36 9.904 10.312 10.072 10.312H11.008C11.152 10.312 11.248 10.36 11.368 10.456C11.464 10.552 11.512 10.672 11.512 10.84C11.512 10.984 11.464 11.104 11.368 11.2C11.272 11.296 11.152 11.344 11.008 11.344H10.048ZM11.584 23.488C11.464 23.392 11.416 23.272 11.416 23.104V17.44C11.416 17.32 11.464 17.2 11.56 17.104C11.656 16.984 11.776 16.936 11.944 16.936C12.112 16.936 12.232 16.984 12.328 17.08C12.424 17.176 12.472 17.296 12.472 17.44V23.104C12.448 23.272 12.376 23.392 12.304 23.488C12.208 23.584 12.112 23.632 11.968 23.632C11.8 23.608 11.68 23.584 11.584 23.488ZM13.648 14.8C13.408 14.68 13.192 14.584 13.048 14.488C12.928 14.416 12.808 14.344 12.664 14.272C12.52 14.2 12.424 14.152 12.376 14.152C12.232 14.152 12.136 14.104 12.016 14.008C11.92 13.912 11.872 13.792 11.872 13.648C11.872 13.48 11.92 13.36 12.016 13.264C12.112 13.168 12.232 13.12 12.4 13.12C12.616 13.12 12.832 13.168 13.024 13.264C13.216 13.36 13.384 13.456 13.528 13.552C13.912 13.768 14.2 13.888 14.368 13.936C14.536 13.984 14.704 13.888 14.872 13.744C14.968 13.648 15.064 13.6 15.208 13.6C15.352 13.6 15.472 13.648 15.544 13.744C15.64 13.84 15.688 13.96 15.688 14.104C15.688 14.248 15.64 14.344 15.544 14.464C15.4 14.632 15.232 14.776 15.04 14.848C14.848 14.92 14.656 14.968 14.464 14.968C14.152 14.992 13.912 14.92 13.648 14.8ZM13.792 11.344C13.672 11.344 13.552 11.296 13.456 11.2C13.36 11.104 13.312 10.984 13.312 10.84C13.312 10.672 13.36 10.552 13.456 10.456C13.552 10.36 13.672 10.312 13.816 10.312H14.776C14.92 10.312 15.016 10.36 15.136 10.456C15.232 10.552 15.28 10.672 15.28 10.84C15.28 10.984 15.232 11.104 15.136 11.2C15.04 11.296 14.92 11.344 14.776 11.344H13.792ZM16.72 17.656C16.648 17.608 16.6 17.56 16.528 17.44L15.712 15.808C15.64 15.688 15.616 15.568 15.664 15.448C15.712 15.328 15.784 15.232 15.904 15.184C16.048 15.136 16.168 15.112 16.264 15.136C16.384 15.16 16.456 15.232 16.552 15.352L17.368 16.984C17.416 17.128 17.44 17.248 17.416 17.368C17.392 17.488 17.296 17.584 17.176 17.632C17.128 17.68 17.056 17.704 17.008 17.704C16.864 17.704 16.768 17.68 16.72 17.656Z" fill="currentColor"></path>
  </symbol>
  <symbol fill="none" xmlns="http://www.w3.org/2000/svg" viewBox="0 0 25 25" id="submenu_icon-3">
    <path d="M18.1207 12.2957H19.2083V12.8701C19.2083 13.8513 19.0463 14.7607 18.6992 15.5983C18.3521 16.4598 17.8893 17.2017 17.3107 17.8718C16.7091 18.5179 16.038 19.0684 15.2281 19.4752C14.4413 19.8821 13.5851 20.1214 12.6595 20.1932V22.4667H17.0099V23.5915H7.19835V22.4667H11.5488V20.1932C10.6463 20.1214 9.79008 19.8821 8.98017 19.4752C8.19339 19.0684 7.49917 18.5179 6.89752 17.8718C6.29587 17.2256 5.83306 16.4598 5.50909 15.5983C5.16198 14.7368 5 13.8273 5 12.8701V12.2957H6.0876V12.8701C6.0876 13.7316 6.24959 14.5214 6.55041 15.2872C6.87438 16.053 7.29091 16.6991 7.84628 17.2735C8.40165 17.8239 9.02645 18.2786 9.76694 18.5897C10.4843 18.9248 11.2711 19.0684 12.1041 19.0684C12.9372 19.0684 13.724 18.9009 14.4413 18.5897C15.1587 18.2547 15.8066 17.8239 16.362 17.2735C16.9174 16.7231 17.3339 16.053 17.6579 15.2872C17.9818 14.5214 18.1207 13.7316 18.1207 12.8701V12.2957ZM12.1041 17.9436C11.4099 17.9436 10.7851 17.8 10.1835 17.5368C9.58182 17.2735 9.07273 16.9145 8.63306 16.4598C8.19339 16.0051 7.84628 15.4547 7.59174 14.8564C7.33719 14.2342 7.19835 13.588 7.19835 12.8701V6.0735C7.19835 5.35556 7.33719 4.7094 7.59174 4.08718C7.84628 3.46496 8.19339 2.93846 8.63306 2.48376C9.07273 2.02906 9.60496 1.67009 10.1835 1.40684C10.7851 1.14359 11.4099 1 12.1041 1C12.7983 1 13.4231 1.14359 14.0248 1.40684C14.6264 1.67009 15.1355 2.02906 15.5752 2.48376C16.0149 2.93846 16.362 3.48889 16.6165 4.08718C16.8711 4.7094 17.0099 5.35556 17.0099 6.0735V12.8701C17.0099 13.588 16.8711 14.2342 16.6165 14.8564C16.362 15.4786 16.0149 16.0051 15.5752 16.4598C15.1355 16.9145 14.6033 17.2735 14.0248 17.5368C13.4463 17.8 12.7983 17.9436 12.1041 17.9436ZM8.28595 12.2957V12.8701C8.28595 13.9709 8.6562 14.8803 9.39669 15.6701C10.1372 16.4359 11.0397 16.8188 12.1041 16.8188C13.1686 16.8188 14.0711 16.4359 14.8116 15.6701C15.5521 14.9043 15.9223 13.9709 15.9223 12.8701V6.0735C15.9223 4.99658 15.5521 4.06325 14.8116 3.2735C14.0711 2.50769 13.1686 2.12479 12.1041 2.12479C11.0397 2.12479 10.1372 2.50769 9.39669 3.2735C8.6562 4.03932 8.28595 4.97265 8.28595 6.0735V6.64786H13.7471V7.77265H8.28595V8.89744H13.7471V10.0462H8.28595V11.1709H13.7471V12.2957H8.28595Z" fill="currentColor"></path>
  </symbol>
  <symbol fill="none" xmlns="http://www.w3.org/2000/svg" viewBox="0 0 25 25" id="submenu_icon-4">
    <path d="M22.6012 9.84307C23.2575 10.0325 23.7825 10.3571 24.2025 10.8712C24.5962 11.3582 24.8062 11.9535 24.8062 12.6299V20.0703H0V12.6028C0 11.8994 0.23625 11.2771 0.6825 10.79C1.155 10.303 1.65375 9.97835 2.205 9.81602V8.4632C2.205 7.51623 2.54625 6.70454 3.22875 6.02814C3.91125 5.35173 4.75125 5 5.7225 5H19.1625C20.1075 5 20.9212 5.32467 21.6037 5.97403C22.2862 6.62338 22.6012 7.46212 22.6012 8.4632V9.84307ZM4.54125 18.934V12.6299C4.54125 12.0887 4.38375 11.6558 4.06875 11.3312C3.75375 11.0065 3.3075 10.8442 2.75625 10.8442V10.9253C2.3625 10.9253 1.995 11.0877 1.65375 11.4123C1.28625 11.737 1.12875 12.1429 1.12875 12.6299V18.934H4.54125ZM3.3075 8.57143V9.7619C3.99 9.87013 4.54125 10.1948 4.9875 10.7089C5.43375 11.2229 5.64375 11.8452 5.64375 12.6028V13.8203H19.1625V12.6028C19.1625 11.9264 19.3987 11.3582 19.8975 10.8442C20.37 10.3301 20.9212 10.0054 21.4987 9.84307V8.57143C21.4987 7.89502 21.2625 7.32684 20.8162 6.83983C20.37 6.37987 19.8187 6.13636 19.1625 6.13636H5.7225C5.06625 6.13636 4.515 6.37987 4.0425 6.86688C3.54375 7.38095 3.3075 7.94913 3.3075 8.57143ZM5.64375 18.934H19.1625V14.9567H5.64375V18.934ZM23.6775 18.934V12.6299C23.6775 12.1429 23.52 11.71 23.205 11.4123C22.89 11.0877 22.47 10.9253 21.9187 10.9253V10.8442C21.525 10.8983 21.1575 11.1147 20.79 11.4664C20.4225 11.8182 20.2387 12.197 20.2387 12.6028V18.9069H23.6775V18.934Z" fill="currentColor"></path>
  </symbol>
  <symbol fill="none" xmlns="http://www.w3.org/2000/svg" viewBox="0 0 25 25" id="submenu_icon-2">
    <path d="M24.6781 14.8212H0.321789C0.144033 14.8212 0 14.6746 0 14.4936C0 14.3126 0.144033 14.166 0.321789 14.166H24.6782C24.856 14.166 25 14.3126 25 14.4936C25 14.6746 24.8558 14.8212 24.6781 14.8212Z" fill="currentColor"></path>
    <path d="M24.6781 11.8914H22.5091V10.2827H22.8745C23.0523 10.2827 23.1963 10.1361 23.1963 9.9551C23.1963 9.77414 23.0523 9.62751 22.8745 9.62751H21.7954L21.98 9.29455H22.3815C22.8308 9.29455 23.1962 8.92255 23.1962 8.4651C23.1962 8.00766 22.8308 7.63565 22.3815 7.63565H12.0947C11.6455 7.63565 11.2801 8.00766 11.2801 8.4651C11.2801 8.92255 11.6455 9.29455 12.0947 9.29455H12.4963L12.6809 9.62751H11.6018C11.424 9.62751 11.28 9.77414 11.28 9.9551C11.28 10.1361 11.424 10.2827 11.6018 10.2827H11.9672V11.8914H8.66319V10.2827H9.41102C9.58878 10.2827 9.73281 10.1361 9.73281 9.9551C9.73281 9.77414 9.58878 9.62751 9.41102 9.62751H8.66319V8.0188H9.41102C9.58878 8.0188 9.73281 7.87217 9.73281 7.69121C9.73281 7.51025 9.58878 7.36363 9.41102 7.36363H8.66319V5.75478H9.41102C9.58878 5.75478 9.73281 5.60815 9.73281 5.4272C9.73281 5.24624 9.58878 5.09961 9.41102 5.09961H1.69982C1.52206 5.09961 1.37803 5.24624 1.37803 5.4272C1.37803 5.60815 1.52206 5.75478 1.69982 5.75478H2.45692V7.36349H1.69982C1.52206 7.36349 1.37803 7.51012 1.37803 7.69108C1.37803 7.87204 1.52206 8.01867 1.69982 8.01867H2.45692V9.62738H1.69982C1.52206 9.62738 1.37803 9.77401 1.37803 9.95497C1.37803 10.1359 1.52206 10.2826 1.69982 10.2826H2.45692V11.8913H0.321789C0.144033 11.8913 0 12.0379 0 12.2189V22.6147C0 22.7957 0.144033 22.9423 0.321789 22.9423H1.90537V24.6725C1.90537 24.8535 2.04941 25.0001 2.22716 25.0001C2.40492 25.0001 2.54895 24.8535 2.54895 24.6725V22.9423H22.4511V24.6725C22.4511 24.8535 22.5951 25.0001 22.7728 25.0001C22.9506 25.0001 23.0946 24.8535 23.0946 24.6725V22.9423H24.6782C24.856 22.9423 25 22.7957 25 22.6147V12.2189C24.9999 12.038 24.8558 11.8914 24.6781 11.8914ZM21.8657 11.8914H20.6771V10.2827H21.8657V11.8914ZM14.4434 11.8914V10.2827H20.0335V11.8914H14.4434ZM12.9645 8.80606C12.9074 8.70319 12.8004 8.63951 12.6843 8.63951H12.0949C12.0006 8.63951 11.9238 8.56128 11.9238 8.46523C11.9238 8.36919 12.0006 8.29096 12.0949 8.29096H22.3817C22.4759 8.29096 22.5527 8.36919 22.5527 8.46523C22.5527 8.56128 22.4759 8.63951 22.3817 8.63951H21.7923C21.6763 8.63951 21.5692 8.70319 21.5121 8.80606L21.0564 9.62764H13.4201L12.9645 8.80606ZM12.611 10.2827H13.7997V11.8914H12.611V10.2827ZM3.1005 8.0188H8.01974V9.62751H3.1005V8.0188ZM8.01961 5.75478V7.36349H3.1005V5.75478H8.01961ZM3.1005 10.2827H8.01974V11.8914H3.1005V10.2827ZM24.3563 22.2873H20.3034V19.0334C20.3034 18.8525 20.1594 18.7059 19.9816 18.7059C19.8039 18.7059 19.6599 18.8525 19.6599 19.0334V22.2873H15.3156V19.0334C15.3156 18.8525 15.1716 18.7059 14.9938 18.7059C14.816 18.7059 14.672 18.8525 14.672 19.0334V22.2873H10.3279V19.0334C10.3279 18.8525 10.1838 18.7059 10.0061 18.7059C9.82832 18.7059 9.68429 18.8525 9.68429 19.0334V22.2873H5.34001V19.0334C5.34001 18.8525 5.19598 18.7059 5.01823 18.7059C4.84047 18.7059 4.69644 18.8525 4.69644 19.0334V22.2873H0.643577V12.5466H24.3564L24.3563 22.2873Z" fill="currentColor"></path>
    <path d="M12.2888 7.24923C12.4666 7.24923 12.6106 7.1026 12.6106 6.92164C12.6106 4.32414 14.6864 2.21095 17.2379 2.21095C19.7893 2.21095 21.8651 4.32414 21.8651 6.92164C21.8651 7.1026 22.0092 7.24923 22.1869 7.24923C22.3647 7.24923 22.5087 7.1026 22.5087 6.92164C22.5087 4.37905 20.7619 2.24541 18.4264 1.69506C18.4458 1.65287 18.4575 1.60622 18.4575 1.55643V1.24168C18.4575 0.557029 17.9104 0 17.2378 0C16.5652 0 16.018 0.557029 16.018 1.24168V1.55643C16.018 1.60622 16.0297 1.65287 16.0491 1.69506C13.7135 2.24541 11.9668 4.37905 11.9668 6.92164C11.9671 7.1026 12.1111 7.24923 12.2888 7.24923ZM16.6618 1.55643V1.24168C16.6618 0.918291 16.9203 0.655173 17.2381 0.655173C17.5557 0.655173 17.8142 0.918291 17.8142 1.24168V1.55643C17.8142 1.56757 17.8164 1.57805 17.8174 1.58893C17.6271 1.5677 17.434 1.55577 17.2382 1.55577C17.0423 1.55577 16.8492 1.56757 16.6589 1.58893C16.6596 1.57805 16.6618 1.56757 16.6618 1.55643Z" fill="currentColor"></path>
  </symbol>
  <symbol fill="none" xmlns="http://www.w3.org/2000/svg" viewBox="0 0 25 25" id="submenu_icon-1">
    <g clip-path="url(#clip0_247_7478)">
      <path d="M23.525 10.9436C24.025 10.9436 24.45 11.1116 24.825 11.4236C25.2 11.7596 25.4 12.1436 25.425 12.5756V13.0076C25.425 13.4156 25.3 13.7756 25.025 14.0876C24.775 14.3996 24.45 14.6156 24.1 14.7116V18.4796C24.1 18.8156 24.05 19.1036 23.95 19.3676C23.85 19.6316 23.7 19.8716 23.5 20.0396V20.9996C23.5 21.5276 23.3 21.9836 22.9 22.3676C22.5 22.7516 22.025 22.9436 21.475 22.9436H19.45C18.925 22.9436 18.475 22.7756 18.1 22.4396C17.725 22.1036 17.5 21.6956 17.425 21.2396H10C9.95 21.7196 9.725 22.1036 9.325 22.4396C8.95 22.7756 8.475 22.9436 7.975 22.9436H5.95C5.4 22.9436 4.925 22.7516 4.525 22.3676C4.125 21.9836 3.925 21.5276 3.925 20.9996V20.0396C3.725 19.8236 3.575 19.5596 3.475 19.2956C3.375 19.0316 3.325 18.7436 3.325 18.4556V14.7356C2.875 14.6876 2.475 14.4956 2.2 14.1596C1.9 13.8476 1.75 13.4636 1.75 13.0316V12.5996C1.75 12.1196 1.925 11.7116 2.275 11.3756C2.625 11.0396 3.05 10.8476 3.525 10.8236H4.5L5.55 8.2316C5.725 7.7996 6 7.4636 6.425 7.1996C6.85 6.9356 7.3 6.7916 7.775 6.7916H11.7V6.5996C11.7 6.5516 11.725 6.4796 11.775 6.4316C11.825 6.3836 11.9 6.3596 11.975 6.3596H12.05V5.3516C12.05 4.9676 12.2 4.6316 12.475 4.3676C12.75 4.1036 13.1 3.9596 13.475 3.9596H13.625C14 3.9596 14.35 4.1036 14.625 4.3676C14.9 4.6316 15.05 4.9676 15.05 5.3516V6.4796H15.125C15.2 6.4796 15.275 6.5036 15.325 6.5516C15.375 6.5996 15.4 6.6476 15.4 6.7196V6.9116H19.525C20.025 6.9116 20.475 7.0316 20.875 7.2956C21.3 7.5596 21.575 7.8956 21.75 8.3516L22.8 10.9436H23.525ZM24.375 13.1036C24.35 12.8156 24.325 12.6716 24.25 12.6716C24.25 12.4556 24.175 12.2636 24 12.0956C23.825 11.9276 23.625 11.8556 23.4 11.8556H22.475C22.425 11.8556 22.35 11.8556 22.275 11.8796C22.2 11.9036 22.15 11.9276 22.075 11.9516L20.775 8.6396C20.675 8.3996 20.5 8.1836 20.25 8.0396C20 7.8956 19.75 7.8236 19.45 7.8236H7.725C7.425 7.8236 7.175 7.8956 6.925 8.0396C6.675 8.1836 6.5 8.3756 6.425 8.6396L5.05 12.0956C5 12.0476 4.9 11.9756 4.775 11.9276C4.65 11.8796 4.55 11.8556 4.475 11.8556H3.55C3.325 11.8556 3.125 11.9276 2.95 12.0956C2.775 12.2636 2.7 12.4556 2.7 12.6716V13.1036C2.7 13.3196 2.775 13.5116 2.95 13.6796C3.125 13.8476 3.325 13.9196 3.55 13.9196H4.5C4.45 14.0156 4.4 14.1116 4.35 14.2316C4.325 14.3516 4.3 14.4716 4.3 14.6156V18.5756C4.3 18.7916 4.35 19.0076 4.45 19.1756C4.55 19.3676 4.7 19.5116 4.9 19.6316H22.475C22.65 19.5356 22.775 19.3916 22.9 19.1996C23 19.0076 23.05 18.7916 23.05 18.5756V14.6156C23.05 14.4716 23.025 14.3516 23 14.2316C22.975 14.1116 22.925 14.0156 22.85 13.9196H23.5C23.725 13.9196 23.925 13.8476 24.1 13.6796C24.275 13.5116 24.375 13.3196 24.375 13.1036ZM8.975 20.5916V20.0156H4.9V21.0236C4.9 21.3116 5 21.5516 5.2 21.7436C5.4 21.9356 5.65 22.0316 5.95 22.0316H7.9C8.2 22.0316 8.45 21.9356 8.65 21.7436C8.85 21.5516 8.95 21.3116 8.95 21.0236V20.5916H8.975ZM6.6 12.4556C6.45 12.4556 6.325 12.4076 6.25 12.3116C6.175 12.2156 6.15 12.0956 6.225 11.9516L7.275 9.3116C7.325 9.1196 7.45 8.9756 7.575 8.8796C7.725 8.7836 7.875 8.7356 8.05 8.7356H19.25C19.45 8.7356 19.625 8.7836 19.75 8.9036C19.875 9.0236 19.975 9.1436 20.05 9.3116L21.075 11.9516C21.125 12.0476 21.125 12.1676 21.05 12.2876C20.975 12.4076 20.85 12.4556 20.675 12.4556H6.6ZM8.45 14.7836C8.2 14.5436 7.875 14.3996 7.525 14.3996C7.175 14.3996 6.875 14.5196 6.6 14.7836C6.35 15.0236 6.2 15.3356 6.2 15.6716C6.2 16.0316 6.325 16.3196 6.6 16.5596C6.85 16.7996 7.175 16.9196 7.525 16.9196C7.9 16.9196 8.2 16.7996 8.45 16.5596C8.7 16.3196 8.825 16.0076 8.825 15.6716C8.825 15.3356 8.7 15.0236 8.45 14.7836ZM11.625 3.7436L12.125 3.2636L10.975 2.1356L10.475 2.6156L11.625 3.7436ZM12.5 6.3596H13.55V4.4156C13.25 4.4156 13 4.5116 12.8 4.7036C12.6 4.8956 12.5 5.1356 12.5 5.4236V6.3596ZM13.175 2.9516H13.9V1.3916H13.175V2.9516ZM15.5 3.6956L16.65 2.5916L16.15 2.1116L14.975 3.2156L15.5 3.6956ZM22.4 21.0236C22.4 20.3516 22.4 19.9916 22.4 19.9676H18.275V21.0236C18.275 21.3116 18.375 21.5516 18.575 21.7436C18.775 21.9356 19.025 22.0316 19.325 22.0316H21.35C21.65 22.0316 21.9 21.9356 22.1 21.7436C22.3 21.5516 22.4 21.3116 22.4 21.0236ZM20.775 14.7836C20.525 14.5436 20.2 14.3996 19.85 14.3996C19.5 14.3996 19.2 14.5196 18.925 14.7836C18.675 15.0236 18.525 15.3356 18.525 15.6716C18.525 16.0316 18.65 16.3196 18.925 16.5596C19.175 16.7996 19.5 16.9196 19.85 16.9196C20.225 16.9196 20.525 16.7996 20.775 16.5596C21.025 16.3196 21.15 16.0076 21.15 15.6716C21.175 15.3356 21.05 15.0236 20.775 14.7836Z" fill="currentColor"></path>
    </g>
    <defs>
      <clipPath id="clip0_247_7478">
        <rect width="25" height="25" fill="white"></rect>
      </clipPath>
    </defs>
  </symbol>
  <symbol fill="none" xmlns="http://www.w3.org/2000/svg" viewBox="0 0 24 24" id="submenu_icon-10">
    <circle cx="12" cy="12" r="12" fill="currentColor"></circle>
    <path d="M11.7553 7L12.8779 10.4549H16.5106L13.5716 12.5902L14.6942 16.0451L11.7553 13.9098L8.81635 16.0451L9.93892 12.5902L7 10.4549H10.6327L11.7553 7Z" fill="white"></path>
  </symbol>
  <symbol fill="none" xmlns="http://www.w3.org/2000/svg" viewBox="0 0 25 25" id="submenu_icon-9">
    <path d="M7.2292 10.426C7.2032 10.426 7.1772 10.426 7.1512 10.426C6.1372 10.062 5.4872 9.568 5.2532 8.944C5.0192 8.32 4.9412 7.826 5.0452 7.436L5.5132 1.144C5.5132 1.014 5.5652 0.91 5.6692 0.832C5.7732 0.754 5.8772 0.728 5.9812 0.728C6.1372 0.728 6.2412 0.78 6.2932 0.884C6.3452 0.988 6.3972 1.092 6.3972 1.196L5.9292 7.54V7.618C5.9292 7.67 5.9552 7.93 6.0072 8.372C6.0592 8.814 6.5272 9.178 7.4372 9.516C7.5672 9.542 7.6452 9.62 7.7232 9.75C7.7752 9.88 7.7752 10.01 7.7232 10.14C7.7232 10.192 7.6712 10.27 7.5932 10.322C7.5152 10.374 7.4112 10.4 7.3072 10.4C7.2812 10.426 7.2552 10.426 7.2292 10.426ZM7.6712 23.92C7.3332 23.608 7.1772 23.218 7.1772 22.776V10.088C7.1772 9.932 7.2292 9.828 7.3332 9.75C7.4372 9.672 7.5412 9.62 7.6712 9.62C7.8272 9.62 7.9312 9.672 8.0092 9.75C8.0872 9.828 8.1392 9.958 8.1392 10.088V22.776C8.1392 22.984 8.2172 23.166 8.3992 23.296C8.5812 23.452 8.7892 23.504 9.0232 23.504C9.2572 23.504 9.4652 23.426 9.6472 23.296C9.8292 23.14 9.9072 22.984 9.9072 22.776V10.088C9.9072 9.932 9.9592 9.828 10.0372 9.75C10.1152 9.672 10.2452 9.62 10.3752 9.62C10.5052 9.62 10.6352 9.672 10.7132 9.75C10.7912 9.828 10.8432 9.958 10.8432 10.088V22.776C10.7912 23.244 10.5572 23.66 10.1932 23.946C9.8292 24.258 9.4132 24.414 8.9192 24.414C8.4252 24.414 8.0092 24.258 7.6712 23.92ZM7.8012 8.06C7.6452 8.06 7.5412 8.008 7.4632 7.904C7.3852 7.8 7.3332 7.696 7.3332 7.566V0.468C7.3332 0.312 7.3852 0.208 7.4632 0.13C7.5412 0.052 7.6712 0 7.8012 0C7.9312 0 8.0352 0.052 8.1392 0.13C8.2432 0.208 8.2952 0.338 8.2952 0.468V7.566C8.2952 7.696 8.2432 7.8 8.1392 7.904C8.0352 8.008 7.9312 8.06 7.8012 8.06ZM9.7512 8.06C9.6212 8.06 9.5172 8.008 9.4392 7.904C9.3612 7.8 9.3092 7.696 9.3092 7.566V0.468C9.3092 0.312 9.3612 0.208 9.4392 0.13C9.5172 0.052 9.6472 0 9.7512 0C9.9072 0 10.0112 0.052 10.0892 0.13C10.1672 0.208 10.2192 0.338 10.2192 0.468V7.566C10.2192 7.696 10.1672 7.8 10.0632 7.904C9.9852 8.008 9.8812 8.06 9.7512 8.06ZM10.0372 10.348C9.9592 10.296 9.9072 10.192 9.9072 10.114C9.8812 9.958 9.8812 9.854 9.9072 9.75C9.9592 9.646 10.0372 9.568 10.1672 9.49C11.1032 9.152 11.6232 8.528 11.7532 7.592V7.514L11.2072 1.222C11.2072 1.092 11.2332 0.988 11.3112 0.884C11.3892 0.78 11.4932 0.728 11.6232 0.728C11.7792 0.728 11.8832 0.754 11.9612 0.832C12.0392 0.91 12.0912 1.014 12.0912 1.144L12.5592 7.436C12.6112 7.826 12.5332 8.32 12.3252 8.944C12.0912 9.568 11.4672 10.062 10.4532 10.426C10.4272 10.426 10.3752 10.426 10.2972 10.426C10.2192 10.426 10.1152 10.4 10.0372 10.348ZM15.9132 13.338C15.8612 13.312 15.8092 13.286 15.7572 13.234C15.7312 13.182 15.5232 12.922 15.1332 12.506C14.7692 12.09 14.5092 11.7 14.3792 11.31C14.1452 10.66 14.0672 9.984 14.0672 9.256C14.0932 8.528 14.1712 7.852 14.2752 7.254C14.4052 6.656 14.5352 6.136 14.6652 5.72C14.8212 5.304 14.8992 5.07 14.8992 5.018C15.3672 3.848 15.6792 3.068 15.8612 2.756C16.0432 2.418 16.2252 2.158 16.3812 1.95L16.4592 1.898C16.6932 1.534 16.9792 1.222 17.3172 0.91C17.6552 0.598 17.9932 0.52 18.3832 0.65C18.7472 0.806 18.9812 1.118 19.0592 1.612C19.1372 2.106 19.1892 2.522 19.1892 2.834C19.1892 2.99 19.1372 3.094 19.0332 3.172C18.9292 3.25 18.8252 3.276 18.7212 3.25C18.5652 3.25 18.4612 3.198 18.4092 3.094C18.3572 2.99 18.3052 2.886 18.3052 2.756C18.3052 2.496 18.2792 2.21 18.2532 1.976C18.2272 1.716 18.1752 1.56 18.0972 1.508C17.8372 1.742 17.5512 2.028 17.2912 2.392L17.1352 2.47C17.0052 2.652 16.8492 2.886 16.6932 3.198C16.5372 3.51 16.2252 4.212 15.7832 5.356C15.5232 6.11 15.3412 6.76 15.2372 7.332C15.1332 7.904 15.0552 8.528 15.0292 9.178C15.0032 9.854 15.1072 10.452 15.3152 11.024C15.4192 11.258 15.6012 11.57 15.8612 11.908C16.1212 12.272 16.3292 12.48 16.4852 12.584C16.5892 12.688 16.6152 12.818 16.6152 12.922C16.5892 13.052 16.5632 13.156 16.4852 13.26C16.3812 13.26 16.3032 13.26 16.2252 13.286C16.1472 13.312 16.0952 13.312 16.0692 13.312C16.0432 13.39 15.9912 13.364 15.9132 13.338ZM15.8872 11.128C15.8612 11.128 15.8612 11.102 15.8612 11.076C15.6012 10.27 15.5492 9.412 15.6532 8.476C15.7832 7.54 15.9652 6.682 16.2252 5.85C16.4852 5.044 16.7452 4.342 17.0052 3.744C17.2652 3.146 17.4472 2.782 17.4732 2.652C17.4732 2.626 17.4992 2.6 17.5512 2.6C17.6032 2.6 17.6292 2.6 17.6812 2.6C17.7332 2.6 17.7592 2.626 17.7592 2.652C17.7592 2.678 17.7592 2.704 17.7592 2.756C17.7332 2.808 17.6032 3.12 17.3432 3.666C17.0832 4.238 16.8232 4.914 16.5372 5.72C16.2772 6.526 16.0692 7.384 15.9392 8.32C15.8092 9.23 15.8872 10.088 16.1212 10.868C16.1212 10.946 16.0952 10.998 16.0692 11.05C16.0432 11.102 16.0172 11.128 15.9652 11.154C15.9652 11.128 15.9652 11.128 15.9652 11.154C15.9392 11.128 15.9132 11.128 15.8872 11.128ZM16.1992 24.076C15.8612 23.738 15.7052 23.374 15.7052 22.932V12.896C15.7052 12.74 15.7572 12.636 15.8352 12.558C15.9132 12.48 16.0432 12.428 16.1732 12.428C16.3032 12.428 16.4072 12.48 16.5112 12.558C16.6152 12.636 16.6672 12.766 16.6672 12.896V22.854C16.6672 23.062 16.7452 23.244 16.9272 23.374C17.1092 23.53 17.3172 23.582 17.5512 23.582C17.7852 23.582 17.9932 23.504 18.1752 23.374C18.3572 23.218 18.4352 23.062 18.4352 22.854V2.652C18.4352 2.496 18.4872 2.392 18.5652 2.314C18.6432 2.236 18.7732 2.184 18.9032 2.184C19.0332 2.184 19.1372 2.236 19.2152 2.314C19.2932 2.392 19.3452 2.522 19.3452 2.652V22.854C19.2932 23.322 19.0592 23.738 18.7212 24.076C18.3572 24.414 17.9412 24.57 17.4732 24.57C16.9792 24.544 16.5372 24.388 16.1992 24.076Z" fill="currentColor"></path>
  </symbol>
  <symbol fill="none" xmlns="http://www.w3.org/2000/svg" viewBox="0 0 25 25" id="submenu_icon-8">
    <g clip-path="url(#clip0_247_7501)">
      <path d="M19.1962 4.31639C18.9865 4.31567 18.7836 4.24165 18.6227 4.10714C18.4755 3.96244 18.3831 3.77113 18.3613 3.5659C18.3395 3.36066 18.3896 3.15421 18.503 2.98179C18.6165 2.80936 18.7862 2.68166 18.9833 2.62047C19.1805 2.55928 19.3927 2.5684 19.5838 2.64627C19.775 2.72414 19.9332 2.86594 20.0314 3.04746C20.1296 3.22897 20.1618 3.43896 20.1225 3.64157C20.0831 3.84418 19.9747 4.02685 19.8156 4.1584C19.6566 4.28995 19.4568 4.36223 19.2504 4.36289M19.3124 6.97464L12.7249 14.9649L12.1902 14.3216L12.2289 14.2751L16.3752 9.16014C16.4532 9.06182 16.5019 8.94345 16.5156 8.81869C16.5293 8.69392 16.5075 8.56782 16.4527 8.45489C16.401 8.34201 16.318 8.24628 16.2137 8.179C16.1093 8.11171 15.9879 8.07568 15.8637 8.07514H7.07519L6.12194 6.92039L19.3124 6.97464ZM11.7019 13.7249L7.63319 8.79589H15.8404L11.7252 13.7481L11.7019 13.7249ZM21.4514 0.999393C21.4133 0.961197 21.368 0.930896 21.3181 0.910222C21.2683 0.889548 21.2148 0.878906 21.1608 0.878906C21.1068 0.878906 21.0534 0.889548 21.0035 0.910222C20.9536 0.930896 20.9083 0.961197 20.8702 0.999393L20.0409 1.91389H19.9867C19.7475 1.78857 19.4818 1.72215 19.2117 1.72014C18.9049 1.71968 18.6035 1.80128 18.3388 1.95648C18.0741 2.11169 17.8558 2.33485 17.7064 2.60284C17.557 2.87083 17.4819 3.1739 17.4891 3.48064C17.4962 3.78738 17.5852 4.08664 17.7469 4.34739V4.39389L16.2667 5.99039H5.77319C5.61329 5.97416 5.45231 6.00804 5.31252 6.08735C5.17273 6.16665 5.06105 6.28745 4.99295 6.43302C4.92484 6.57859 4.90368 6.74174 4.93239 6.89987C4.9611 7.05801 5.03826 7.2033 5.15319 7.31564L12.1979 15.8406V23.1566H9.40019C9.27173 23.1566 9.14852 23.2077 9.05769 23.2985C8.96685 23.3894 8.91582 23.5126 8.91582 23.641C8.91582 23.7695 8.96685 23.8927 9.05769 23.9835C9.14852 24.0744 9.27173 24.1254 9.40019 24.1254H15.9334C16.0011 24.134 16.0699 24.1282 16.1351 24.1082C16.2004 24.0882 16.2606 24.0545 16.3118 24.0094C16.3631 23.9643 16.4041 23.9088 16.4322 23.8467C16.4603 23.7845 16.4748 23.717 16.4748 23.6488C16.4748 23.5805 16.4603 23.5131 16.4322 23.4509C16.4041 23.3887 16.3631 23.3332 16.3118 23.2881C16.2606 23.243 16.2004 23.2094 16.1351 23.1894C16.0699 23.1694 16.0011 23.1635 15.9334 23.1721H13.1434V15.8406L20.1727 7.31564C20.2686 7.19701 20.3292 7.05381 20.3477 6.90238C20.3661 6.75095 20.3416 6.59739 20.277 6.45921C20.2123 6.32104 20.1101 6.20381 19.9821 6.12092C19.854 6.03802 19.7052 5.9928 19.5527 5.99039H17.4137L18.3747 4.95189H18.4289C18.6688 5.07453 18.9345 5.13829 19.2039 5.13789C19.5091 5.13804 19.8088 5.05704 20.0723 4.90318C20.3358 4.74933 20.5536 4.52817 20.7035 4.26237C20.8533 3.99656 20.9298 3.69569 20.9251 3.39059C20.9203 3.08549 20.8345 2.78715 20.6764 2.52614V2.47964L21.5057 1.58064C21.5439 1.54249 21.5742 1.49719 21.5949 1.44732C21.6155 1.39746 21.6262 1.344 21.6262 1.29002C21.6262 1.23603 21.6155 1.18258 21.5949 1.13271C21.5742 1.08284 21.5439 1.03754 21.5057 0.999393" fill="currentColor"></path>
    </g>
    <defs>
      <clipPath id="clip0_247_7501">
        <rect width="25" height="25" fill="white"></rect>
      </clipPath>
    </defs>
  </symbol>
  <symbol fill="none" xmlns="http://www.w3.org/2000/svg" viewBox="0 0 24 18" id="submenu_icon-7">
    <g clip-path="url(#clip0_247_7498)">
      <g clip-path="url(#clip1_247_7498)">
        <path opacity="0.875" fill-rule="evenodd" clip-rule="evenodd" d="M11.5 0C12.5503 0.0888845 13.3004 0.638163 13.75 1.64789C16.7521 4.24881 20.1271 6.23472 23.875 7.60563C24.0417 10.4789 24.0417 13.3521 23.875 16.2254C20.7157 17.5643 17.4241 18.0713 14 17.7465C14 16.0563 14 14.3662 14 12.6761C12.6667 12.6761 11.3333 12.6761 10 12.6761C10 14.3662 10 16.0563 10 17.7465C6.57593 18.0713 3.28425 17.5643 0.125001 16.2254C-0.0416669 13.3521 -0.0416669 10.4789 0.125001 7.60563C4.63978 6.09926 8.43143 3.56405 11.5 0ZM11.75 2.53521C13.0884 4.60047 14.5884 6.58638 16.25 8.49296C13.4167 8.66198 10.5833 8.66198 7.75 8.49296C9.4383 6.741 10.7717 4.75509 11.75 2.53521ZM9 4.56338C8.24752 5.9636 7.24752 7.18895 6 8.23944C4.9469 8.34315 3.9469 8.17413 3 7.73239C5.1236 6.86733 7.1236 5.81098 9 4.56338ZM15 4.56338C16.8764 5.81098 18.8764 6.86733 21 7.73239C20.0531 8.17413 19.0531 8.34315 18 8.23944C16.7525 7.18895 15.7525 5.9636 15 4.56338ZM1 8.87324C2.49973 9.12671 3.99972 9.38023 5.5 9.6338C5.5416 11.9171 5.49995 14.1988 5.375 16.4789C4.02297 15.9985 2.64798 15.576 1.25 15.2113C1.00053 13.1053 0.917198 10.9927 1 8.87324ZM22.25 8.87324C22.5 8.87324 22.75 8.87324 23 8.87324C23.0828 10.9927 22.9995 13.1053 22.75 15.2113C21.352 15.576 19.977 15.9985 18.625 16.4789C18.5001 14.1988 18.4584 11.9171 18.5 9.6338C19.8068 9.51254 21.0568 9.25902 22.25 8.87324ZM6.5 9.6338C10.1667 9.6338 13.8333 9.6338 17.5 9.6338C17.5 12 17.5 14.3662 17.5 16.7324C16.6667 16.7324 15.8333 16.7324 15 16.7324C15 15.0422 15 13.3521 15 11.662C13 11.662 11 11.662 9 11.662C9 13.3521 9 15.0422 9 16.7324C8.16667 16.7324 7.33333 16.7324 6.5 16.7324C6.5 14.3662 6.5 12 6.5 9.6338Z" fill="currentColor"></path>
      </g>
    </g>
    <defs>
      <clipPath id="clip0_247_7498">
        <rect width="24" height="18" fill="white"></rect>
      </clipPath>
      <clipPath id="clip1_247_7498">
        <rect width="24" height="18" fill="white"></rect>
      </clipPath>
    </defs>
  </symbol>
  <symbol fill="none" xmlns="http://www.w3.org/2000/svg" viewBox="0 0 25 25" id="submenu_icon-6">
    <path d="M1.48396 23.069C1.41137 23.069 1.33877 23.0457 1.29038 23.0223C1.24198 22.9989 1.16939 22.9522 1.12099 22.8822C1.0484 22.8355 1 22.7654 1 22.7187C1 22.672 1 22.6019 1 22.5319L1.75014 19.6594C1.84693 19.3091 2.01632 19.0055 2.2341 18.7486C2.45188 18.4917 2.71806 18.3049 3.03263 18.1648L7.99323 15.8061C8.09002 15.736 8.18682 15.7127 8.33201 15.7594C8.47719 15.8061 8.57399 15.8761 8.62238 15.9929L12.4941 21.8079L16.3658 15.9929C16.4383 15.8995 16.5351 15.8528 16.6561 15.8061C16.7771 15.7594 16.8981 15.7827 17.0191 15.8061L21.9797 18.1648C22.2943 18.3283 22.5605 18.5384 22.7782 18.7953C22.996 19.0522 23.1654 19.3325 23.2622 19.6594L24.0123 22.5319C24.0365 22.6019 24.0365 22.672 24.0123 22.7421C23.9881 22.8121 23.9639 22.8588 23.9397 22.8822C23.7946 22.9522 23.6978 22.9989 23.6252 23.0223C23.5526 23.0457 23.4558 23.069 23.359 23.069H1.48396ZM11.5019 22.1582L7.94484 16.7636L3.39561 18.9588C3.20202 19.0522 3.03263 19.1923 2.91164 19.3325C2.79065 19.4726 2.69386 19.6594 2.62127 19.8929L2.04052 22.1582H11.5019ZM4.92008 22.9522C4.82329 22.8588 4.77489 22.7421 4.77489 22.5786C4.77489 21.084 4.6539 20.0798 4.38772 19.566C4.12155 19.0522 3.97636 18.7953 3.95216 18.7953C3.85537 18.7019 3.80697 18.5851 3.80697 18.445C3.80697 18.3049 3.85537 18.2115 3.95216 18.1181C4.04895 18.0247 4.14574 17.9546 4.26673 17.9546C4.38772 17.9546 4.48452 17.978 4.58131 18.048C4.62971 18.0947 4.84749 18.445 5.18626 19.0289C5.52503 19.6361 5.71862 20.7804 5.71862 22.4852C5.71862 22.672 5.67022 22.8121 5.59763 22.9055C5.52503 22.9989 5.40404 23.0457 5.28305 23.0457C5.13786 23.069 5.01687 23.0457 4.92008 22.9522ZM10.7034 16.3199C10.1469 16.1097 9.6387 15.8061 9.17894 15.3857C8.71917 14.9887 8.30781 14.4983 7.96904 13.9378C7.63026 13.3773 7.33989 12.7468 7.1221 12.0462C6.73494 12.0228 6.39616 11.7893 6.12998 11.3456C5.86381 10.9019 5.71862 10.3881 5.71862 9.7809C5.71862 9.59407 5.74282 9.40724 5.76701 9.22041C5.79121 9.03359 5.81541 8.87011 5.86381 8.70664C5.81541 8.4731 5.76701 8.23957 5.74282 8.05274C5.71862 7.86591 5.71862 7.65573 5.71862 7.44555C5.71862 6.55812 5.888 5.7174 6.25097 4.94673C6.58975 4.15272 7.07371 3.47547 7.67866 2.89163C8.28361 2.30779 8.98535 1.84072 9.80809 1.51378C10.6308 1.18683 11.4777 1 12.3973 1C13.3168 1 14.1879 1.16347 14.9865 1.51378C15.8092 1.84072 16.5109 2.30779 17.1159 2.89163C17.7208 3.47547 18.2048 4.15272 18.5436 4.94673C18.8823 5.74075 19.0759 6.55812 19.0759 7.44555C19.0759 7.60903 19.0517 7.81921 19.0275 8.02939C19.0033 8.23957 18.9791 8.4731 18.9307 8.72999C18.9549 8.89347 18.9791 9.05694 19.0275 9.24377C19.0517 9.43059 19.0759 9.61742 19.0759 9.80425C19.0759 10.4581 18.9549 10.9953 18.6888 11.4156C18.4226 11.836 18.0838 12.0695 17.6724 12.0695C17.4547 12.7701 17.1885 13.3773 16.8255 13.9612C16.4867 14.5216 16.0754 15.0121 15.6156 15.4091C15.1559 15.8061 14.6477 16.1097 14.0911 16.3432C13.5346 16.5534 12.978 16.6702 12.3973 16.6702C11.8165 16.6702 11.26 16.53 10.7034 16.3199ZM16.8981 9.22041C16.8255 9.17371 16.7529 9.127 16.7045 9.05694C16.7045 9.01023 16.6319 8.8234 16.5109 8.51981C16.3658 8.19286 16.269 7.84256 16.2206 7.4689C15.2284 7.39884 14.2605 7.16531 13.3168 6.7683C12.3731 6.37129 11.6471 5.92758 11.139 5.43716C11.1148 5.48386 11.0664 5.55392 10.9938 5.64734C10.9454 5.7174 10.8728 5.81081 10.8244 5.88087C10.4372 6.20782 9.97747 6.39465 9.46931 6.46471C8.96115 6.51141 8.52559 6.55812 8.21102 6.55812C8.16262 6.72159 8.11422 7.00184 8.06583 7.44555C8.04163 7.86591 8.04163 8.33298 8.09003 8.82341C8.09003 8.89347 8.06583 8.96353 8.04163 9.01023C8.01743 9.05694 7.99323 9.127 7.94484 9.17371C7.89644 9.24377 7.82385 9.29047 7.75125 9.29047C7.67866 9.29047 7.63026 9.29047 7.55767 9.29047C7.02531 9.19706 6.63814 9.15035 6.34777 9.15035C6.20258 9.15035 6.10579 9.10365 6.03319 9.03359C5.9606 8.96353 5.9122 8.84676 5.9122 8.72999C5.9122 8.61322 5.9606 8.51981 6.03319 8.4264C6.10579 8.33298 6.22678 8.28628 6.34777 8.28628C6.46876 8.28628 6.58975 8.28628 6.71074 8.28628C6.83173 8.28628 6.97691 8.30963 7.09791 8.33298C7.09791 7.91262 7.1221 7.44555 7.1463 6.95513C7.1947 6.46471 7.31569 6.11441 7.53347 5.90422C7.63026 5.81081 7.72705 5.74075 7.82385 5.69404C7.92064 5.64734 8.06583 5.64734 8.23521 5.64734C8.52559 5.64734 8.86436 5.62398 9.25153 5.57728C9.6387 5.53057 9.92908 5.39045 10.1469 5.15691C10.2437 5.04015 10.3404 4.90003 10.3888 4.73655C10.4372 4.57308 10.4856 4.38625 10.4856 4.17607C10.4856 4.03595 10.534 3.94253 10.6066 3.87247C10.6792 3.80241 10.8002 3.75571 10.9212 3.75571C11.0422 3.75571 11.139 3.80241 11.2116 3.87247C11.2842 3.94253 11.3326 4.0593 11.3326 4.17607C11.381 4.29284 11.5503 4.47966 11.8407 4.73655C12.1311 4.99344 12.5183 5.25033 13.0022 5.53057C13.4862 5.78746 14.0185 6.02099 14.6477 6.23117C15.2768 6.44135 15.9302 6.51141 16.6319 6.51141C16.7529 6.51141 16.8497 6.55812 16.9223 6.62818C16.9949 6.69824 17.0433 6.81501 17.0433 6.93178C17.0433 7.14196 17.0917 7.39885 17.1643 7.65573C17.2369 7.91262 17.3095 8.1228 17.3821 8.26292L18.2774 8.21622C18.3984 8.21622 18.5194 8.26292 18.6162 8.33298C18.713 8.40304 18.7614 8.51981 18.7614 8.63658C18.7614 8.75334 18.713 8.87011 18.6404 8.96353C18.5678 9.05694 18.4468 9.10365 18.3258 9.10365L17.1159 9.24377C17.0675 9.29047 16.9707 9.26712 16.8981 9.22041ZM7.55767 11.0653C7.60606 11.0653 7.63026 11.0653 7.65446 11.0653C7.70286 11.112 7.77545 11.1587 7.82385 11.2055C7.87224 11.2522 7.92064 11.3222 7.96904 11.3923C8.28361 12.6767 8.86436 13.7043 9.6871 14.5216C10.534 15.339 11.4536 15.736 12.4699 15.736C13.4862 15.736 14.4057 15.339 15.2042 14.545C16.027 13.751 16.6077 12.7001 16.9707 11.3923C16.9949 11.3222 17.0433 11.2522 17.0675 11.2055C17.1159 11.1587 17.1643 11.112 17.2127 11.0653C17.2611 11.042 17.3579 11.0186 17.4305 11.042C17.5273 11.042 17.5999 11.0887 17.6483 11.1354C17.6966 11.1354 17.8176 11.0186 17.9386 10.7851C18.0838 10.5516 18.1564 10.2246 18.1564 9.80425C18.1564 9.64078 18.1322 9.50066 18.108 9.33718C18.0838 9.19706 18.0596 9.05694 18.0112 8.94017C18.0112 8.91682 18.0112 8.87011 18.0112 8.82341C18.0112 8.7767 18.0112 8.72999 18.0112 8.70664C18.0596 8.49646 18.108 8.28628 18.1322 8.09945C18.1564 7.91262 18.1564 7.72579 18.1564 7.53897C18.1564 6.7683 18.0112 6.04434 17.7208 5.36709C17.4305 4.68984 17.0191 4.12936 16.5109 3.61559C16.0028 3.12516 15.3978 2.72815 14.6961 2.44791C13.9943 2.16767 13.2442 2.02755 12.4699 2.02755C11.6713 2.02755 10.9454 2.16767 10.2437 2.44791C9.54191 2.72815 8.93696 3.12516 8.4288 3.61559C7.92064 4.10601 7.50927 4.68984 7.2189 5.36709C6.92852 6.04434 6.78333 6.74495 6.78333 7.53897C6.78333 7.70244 6.78333 7.88927 6.80753 8.09945C6.83173 8.30963 6.85593 8.49646 6.90432 8.70664C6.90432 8.72999 6.90432 8.7767 6.90432 8.82341C6.90432 8.87011 6.90432 8.91682 6.90432 8.94017C6.83173 9.03359 6.78333 9.15035 6.75913 9.29047C6.73494 9.4306 6.71074 9.59407 6.71074 9.73419C6.71074 10.2013 6.78333 10.5282 6.90432 10.7384C7.02531 10.9486 7.1221 11.0653 7.1463 11.0653C7.1947 11.0653 7.26729 11.0653 7.29149 11.0653C7.31569 11.0653 7.38828 11.0653 7.43668 11.0653C7.48507 11.0653 7.50927 11.0653 7.55767 11.0653ZM10.9938 10.2246H10.0501C9.90488 10.2246 9.80809 10.1779 9.73549 10.0845C9.6629 9.99108 9.6145 9.89766 9.6145 9.7809C9.6145 9.64078 9.6629 9.54736 9.73549 9.4773C9.80809 9.40724 9.92908 9.36053 10.0501 9.36053H10.9938C11.139 9.36053 11.2358 9.40724 11.3084 9.4773C11.381 9.54736 11.4294 9.66413 11.4294 9.7809C11.4294 9.89766 11.381 9.99108 11.3084 10.0845C11.2358 10.1779 11.139 10.2246 10.9938 10.2246ZM11.018 14.0312C10.7518 13.8444 10.6066 13.7043 10.5824 13.6576C10.5098 13.5174 10.4856 13.4007 10.5098 13.3073C10.534 13.1905 10.6066 13.1204 10.6792 13.0504C10.776 12.9803 10.897 12.957 11.018 12.9803C11.139 13.0037 11.2358 13.0737 11.3084 13.1438C11.5987 13.3073 11.9375 13.4007 12.3247 13.4007C12.736 13.4007 13.0748 13.3073 13.341 13.1438C13.3894 13.027 13.4862 12.957 13.6314 12.957C13.7766 12.9336 13.8734 12.9803 13.9701 13.0504C14.0669 13.0971 14.1395 13.1905 14.1637 13.3306C14.1879 13.4707 14.1637 13.5875 14.1153 13.7276C14.1395 13.751 14.0427 13.8678 13.7766 14.0546C13.5346 14.2414 13.0506 14.3348 12.3973 14.3348C11.7439 14.3115 11.26 14.2181 11.018 14.0312ZM13.6798 18.4917L12.3973 18.0714L11.1148 18.4917C11.0664 18.5151 10.9696 18.5151 10.897 18.4917C10.8002 18.4684 10.7276 18.445 10.6792 18.4217C10.6308 18.375 10.5824 18.3049 10.534 18.2348C10.5098 18.1648 10.4856 18.0947 10.4856 18.0013V17.0672C10.4856 17.0205 10.5098 16.9504 10.534 16.857C10.5582 16.7869 10.6066 16.7169 10.6792 16.6935C10.7276 16.6702 10.8002 16.6468 10.8728 16.6235C10.9454 16.6001 11.018 16.6001 11.1148 16.6235L12.3973 17.0438L13.6798 16.6235C13.7282 16.6001 13.825 16.6001 13.8976 16.6235C13.9943 16.6468 14.0669 16.6702 14.1153 16.6935C14.1637 16.7169 14.2121 16.7869 14.2605 16.857C14.2847 16.9271 14.3089 16.9971 14.3089 17.0672V18.0013C14.3089 18.048 14.2847 18.1181 14.2605 18.2115C14.2363 18.2816 14.1879 18.3516 14.1153 18.375C14.0911 18.4217 14.0427 18.4684 13.9701 18.4917C13.9218 18.5151 13.8492 18.5151 13.8008 18.5151C13.7524 18.4917 13.7282 18.4917 13.6798 18.4917ZM22.754 22.1582L22.1733 19.8929C22.1249 19.7061 22.0281 19.5193 21.8829 19.3558C21.7619 19.1923 21.5925 19.0522 21.3989 18.9588L16.8255 16.7636L13.2926 22.1582H22.754ZM13.8008 10.2246C13.6556 10.2246 13.5588 10.1779 13.4862 10.0845C13.4136 9.99108 13.3652 9.89766 13.3652 9.7809C13.3652 9.64078 13.4136 9.54736 13.4862 9.4773C13.5588 9.40724 13.6798 9.36053 13.8008 9.36053H14.7445C14.8897 9.36053 14.9865 9.40724 15.0591 9.4773C15.1317 9.54736 15.18 9.66413 15.18 9.7809C15.18 9.89766 15.1559 9.99108 15.0833 10.0845C15.0107 10.1779 14.8897 10.2246 14.7445 10.2246H13.8008ZM15.7124 21.2474C15.5672 21.2474 15.4704 21.2007 15.3978 21.1073C15.3252 21.0139 15.2768 20.9205 15.2768 20.8037C15.2768 20.6636 15.3252 20.5702 15.3978 20.5001C15.4704 20.4301 15.5914 20.3834 15.7124 20.3834H17.5999C17.745 20.3834 17.8418 20.4301 17.9144 20.5001C17.987 20.5702 18.0354 20.687 18.0354 20.8037C18.0596 20.9205 18.0354 21.0139 17.9628 21.1073C17.8902 21.2007 17.7692 21.2474 17.5999 21.2474H15.7124ZM19.5115 23.069C19.3663 23.069 19.2695 23.0223 19.1969 22.9522C19.1243 22.8822 19.0759 22.7654 19.0759 22.6486C19.0759 20.9438 19.2453 19.7762 19.6083 19.169C19.9471 18.5618 20.1648 18.2115 20.2132 18.1881C20.31 18.0947 20.4068 18.0714 20.552 18.0947C20.6972 18.1181 20.8182 18.1648 20.8908 18.2582C20.9876 18.3516 21.036 18.4684 21.0118 18.5851C20.9876 18.7019 20.915 18.7953 20.8182 18.8654C20.794 18.8887 20.6488 19.169 20.3826 19.6828C20.1164 20.1965 19.9955 21.2007 19.9955 22.6486C19.9955 22.7888 19.9471 22.8822 19.8503 22.9522C19.8019 23.0457 19.6809 23.069 19.5115 23.069Z" fill="currentColor"></path>
  </symbol>
  <symbol xmlns="http://www.w3.org/2000/svg" viewBox="0 0 5 10" id="arrow-right" fill="none">
  <path d="M1 1L3.92381 4.3415C4.25371 4.71852 4.25371 5.28148 3.92381 5.6585L1 9" stroke="currentColor" stroke-linecap="round"/>
  </symbol>
  
</svg>