<svg width="472" height="129" viewBox="0 0 472 129" fill="none" xmlns="http://www.w3.org/2000/svg">
<path d="M394.75 0H65.8889C65.3366 0 64.8889 0.447714 64.8889 0.999998V51.8116C64.8889 51.9089 64.9031 52.0057 64.9311 52.0989L69.8777 68.5877C70.0702 69.2293 69.5897 69.875 68.9199 69.875H42C41.4477 69.875 41 70.3227 41 70.875V128C41 128.552 41.4477 129 42 129H430.583C431.136 129 431.583 128.552 431.583 128V70.875C431.583 70.3227 431.136 69.875 430.583 69.875H380.248C379.357 69.875 378.91 68.7979 379.54 68.1679L395.457 52.2512C395.645 52.0637 395.75 51.8093 395.75 51.5441V1C395.75 0.447715 395.302 0 394.75 0Z" fill="white"/>
<path d="M99.0256 20.25H107.926L117.326 44.65L126.526 20.25H135.326V56H128.676V29L118.026 56H115.876L105.026 29V56H99.0256V20.25ZM153.864 51.8C156.131 51.8 157.897 51.0333 159.164 49.5C160.431 47.9333 161.064 45.8 161.064 43.1V42.75C161.064 40.05 160.431 37.9333 159.164 36.4C157.897 34.8333 156.131 34.05 153.864 34.05C151.597 34.05 149.814 34.8167 148.514 36.35C147.247 37.8833 146.614 40 146.614 42.7V43.1C146.614 45.8 147.247 47.9333 148.514 49.5C149.781 51.0333 151.564 51.8 153.864 51.8ZM153.814 56.5C151.881 56.5 150.097 56.1833 148.464 55.55C146.831 54.9167 145.414 54.0167 144.214 52.85C143.014 51.6833 142.081 50.2833 141.414 48.65C140.747 47.0167 140.414 45.2 140.414 43.2V42.8C140.414 40.7667 140.747 38.9333 141.414 37.3C142.114 35.6333 143.064 34.2167 144.264 33.05C145.464 31.85 146.881 30.9333 148.514 30.3C150.147 29.6333 151.931 29.3 153.864 29.3C155.764 29.3 157.531 29.6167 159.164 30.25C160.797 30.8833 162.214 31.8 163.414 33C164.614 34.1667 165.547 35.5667 166.214 37.2C166.914 38.8333 167.264 40.65 167.264 42.65V43.05C167.264 45.0833 166.914 46.9333 166.214 48.6C165.547 50.2333 164.614 51.65 163.414 52.85C162.214 54.0167 160.797 54.9167 159.164 55.55C157.531 56.1833 155.747 56.5 153.814 56.5ZM184.03 56.5C182.03 56.5 180.197 56.1833 178.53 55.55C176.897 54.9167 175.48 53.95 174.28 52.65C173.114 51.35 172.214 49.7 171.58 47.7C170.947 45.7 170.63 43.3167 170.63 40.55V38.7C170.63 35.8 170.88 33.1167 171.38 30.65C171.914 28.1833 172.764 26.0333 173.93 24.2C175.097 22.3667 176.647 20.9 178.58 19.8C180.514 18.7 182.914 18.0833 185.78 17.95L187.38 17.9C189.28 17.8 190.847 17.6833 192.08 17.55C193.347 17.4167 194.364 17.2167 195.13 16.95V21.7C194.364 22.0333 193.397 22.3 192.23 22.5C191.097 22.7 189.447 22.8667 187.28 23L185.98 23.1C184.147 23.2 182.58 23.5667 181.28 24.2C180.014 24.8 178.964 25.6333 178.13 26.7C177.297 27.7333 176.647 29 176.18 30.5C175.747 31.9667 175.447 33.6167 175.28 35.45H175.53C176.397 33.75 177.63 32.3667 179.23 31.3C180.83 30.2333 182.88 29.7 185.38 29.7C187.18 29.7 188.83 30.0333 190.33 30.7C191.83 31.3333 193.097 32.2333 194.13 33.4C195.197 34.5667 196.014 35.95 196.58 37.55C197.18 39.15 197.48 40.8833 197.48 42.75V43.05C197.48 45.15 197.13 47.0333 196.43 48.7C195.764 50.3333 194.83 51.7333 193.63 52.9C192.43 54.0667 190.997 54.9667 189.33 55.6C187.697 56.2 185.93 56.5 184.03 56.5ZM184.08 51.8C186.347 51.8 188.114 51.05 189.38 49.55C190.647 48.0167 191.28 45.8667 191.28 43.1V42.9C191.28 40.2333 190.697 38.1667 189.53 36.7C188.364 35.2 186.63 34.45 184.33 34.45C181.997 34.45 180.164 35.2167 178.83 36.75C177.497 38.25 176.83 40.35 176.83 43.05V43.3C176.83 45.9 177.464 47.9667 178.73 49.5C179.997 51.0333 181.78 51.8 184.08 51.8ZM202.341 56V29.85H208.391V48.35L219.691 29.85H225.691V56H219.691V37.5L208.391 56H202.341ZM239.163 45.5C238.996 47.2667 238.746 48.8333 238.413 50.2C238.08 51.5667 237.613 52.7167 237.013 53.65C236.446 54.55 235.73 55.2333 234.863 55.7C234.03 56.1667 232.996 56.4 231.763 56.4C230.963 56.4 230.396 56.35 230.063 56.25C229.863 56.1833 229.696 56.1167 229.563 56.05V51C229.63 51.0333 229.73 51.0667 229.863 51.1C230.13 51.1667 230.43 51.2 230.763 51.2C231.763 51.2 232.48 50.6 232.913 49.4C233.346 48.1667 233.663 46.5333 233.863 44.5C233.963 43.4 234.03 42.0333 234.063 40.4C234.13 38.7333 234.196 37.1167 234.263 35.55C234.33 33.7167 234.38 31.8167 234.413 29.85H253.463V56H247.463V34.35H239.713C239.68 35.2167 239.646 36.1333 239.613 37.1C239.58 38.0333 239.546 38.9833 239.513 39.95C239.48 40.9167 239.43 41.8833 239.363 42.85C239.296 43.7833 239.23 44.6667 239.163 45.5ZM260.076 29.85H266.126V38.45H270.826C272.293 38.45 273.643 38.6333 274.876 39C276.11 39.3667 277.16 39.9333 278.026 40.7C278.926 41.4333 279.626 42.35 280.126 43.45C280.626 44.55 280.876 45.8333 280.876 47.3V47.45C280.876 48.9167 280.626 50.2 280.126 51.3C279.66 52.3667 278.976 53.25 278.076 53.95C277.176 54.65 276.093 55.1667 274.826 55.5C273.593 55.8333 272.21 56 270.676 56H260.076V29.85ZM269.926 51.65C271.626 51.65 272.86 51.3 273.626 50.6C274.393 49.9 274.776 48.8333 274.776 47.4V47.25C274.776 44.3167 273.16 42.85 269.926 42.85H266.126V51.65H269.926ZM302.206 44.9H291.356V56H285.306V29.85H291.356V40.4H302.206V29.85H308.256V56H302.206V44.9ZM338.283 29.85H344.333V56H338.283V29.85ZM314.833 29.85H320.883V38.45H325.333C326.8 38.45 328.15 38.6333 329.383 39C330.617 39.3333 331.667 39.8667 332.533 40.6C333.433 41.3 334.133 42.2 334.633 43.3C335.133 44.4 335.383 45.6833 335.383 47.15V47.3C335.383 50.2 334.45 52.3833 332.583 53.85C330.717 55.2833 328.25 56 325.183 56H314.833V29.85ZM324.483 51.6C326.15 51.6 327.367 51.2667 328.133 50.6C328.933 49.9 329.333 48.7833 329.333 47.25V47.1C329.333 45.7 328.95 44.65 328.183 43.95C327.45 43.2167 326.217 42.85 324.483 42.85H320.883V51.6H324.483ZM362.502 25.65C360.402 25.65 358.702 25.0167 357.402 23.75C356.102 22.45 355.385 20.75 355.252 18.65H359.802C359.869 19.5167 360.102 20.2833 360.502 20.95C360.935 21.5833 361.602 21.9 362.502 21.9C363.435 21.9 364.119 21.5833 364.552 20.95C365.019 20.2833 365.302 19.5167 365.402 18.65H369.902C369.769 20.75 369.019 22.45 367.652 23.75C366.319 25.0167 364.602 25.65 362.502 25.65ZM350.952 56V29.85H357.002V48.35L368.302 29.85H374.302V56H368.302V37.5L357.002 56H350.952ZM72.2701 79.85H82.8201C84.1868 79.85 85.4535 79.9667 86.6201 80.2C87.7868 80.4333 88.7868 80.8167 89.6201 81.35C90.4868 81.85 91.1535 82.5167 91.6201 83.35C92.1201 84.1833 92.3701 85.2 92.3701 86.4V86.5C92.3701 87.9 91.9868 89.1167 91.2201 90.15C90.4868 91.1833 89.3201 91.8833 87.7201 92.25C89.5201 92.6167 90.9368 93.2667 91.9701 94.2C93.0035 95.1333 93.5201 96.45 93.5201 98.15V98.3C93.5201 100.8 92.6701 102.717 90.9701 104.05C89.3035 105.35 86.9035 106 83.7701 106H72.2701V79.85ZM78.3201 83.9V90.55H81.9701C83.4368 90.55 84.5035 90.2833 85.1701 89.75C85.8368 89.1833 86.1701 88.3 86.1701 87.1V87C86.1701 85.8 85.7868 84.9833 85.0201 84.55C84.2868 84.1167 83.2035 83.9 81.7701 83.9H78.3201ZM78.3201 94.6V101.95H82.6201C84.1868 101.95 85.3535 101.667 86.1201 101.1C86.9201 100.533 87.3201 99.6167 87.3201 98.35V98.25C87.3201 95.8167 85.8201 94.6 82.8201 94.6H78.3201ZM121.927 79.85H127.977V106H121.927V79.85ZM98.4768 79.85H104.527V88.45H108.977C110.443 88.45 111.793 88.6333 113.027 89C114.26 89.3333 115.31 89.8667 116.177 90.6C117.077 91.3 117.777 92.2 118.277 93.3C118.777 94.4 119.027 95.6833 119.027 97.15V97.3C119.027 100.2 118.093 102.383 116.227 103.85C114.36 105.283 111.893 106 108.827 106H98.4768V79.85ZM108.127 101.6C109.793 101.6 111.01 101.267 111.777 100.6C112.577 99.9 112.977 98.7833 112.977 97.25V97.1C112.977 95.7 112.593 94.65 111.827 93.95C111.093 93.2167 109.86 92.85 108.127 92.85H104.527V101.6H108.127ZM146.096 106.5C144.162 106.5 142.379 106.2 140.746 105.6C139.146 104.967 137.746 104.083 136.546 102.95C135.379 101.783 134.462 100.383 133.796 98.75C133.162 97.1167 132.846 95.2667 132.846 93.2V92.8C132.846 90.7667 133.162 88.9333 133.796 87.3C134.462 85.6333 135.379 84.2167 136.546 83.05C137.712 81.85 139.079 80.9333 140.646 80.3C142.246 79.6333 143.979 79.3 145.846 79.3C147.479 79.3 149.029 79.55 150.496 80.05C151.996 80.55 153.312 81.3333 154.446 82.4C155.579 83.4667 156.479 84.8333 157.146 86.5C157.846 88.1667 158.196 90.1667 158.196 92.5V94.25H139.046C139.146 96.75 139.796 98.6667 140.996 100C142.229 101.333 143.979 102 146.246 102C148.079 102 149.479 101.65 150.446 100.95C151.412 100.25 152.012 99.2667 152.246 98H158.096C157.662 100.767 156.396 102.883 154.296 104.35C152.196 105.783 149.462 106.5 146.096 106.5ZM152.196 90.2C152.029 87.9333 151.396 86.2833 150.296 85.25C149.229 84.2167 147.746 83.7 145.846 83.7C144.012 83.7 142.512 84.2833 141.346 85.45C140.179 86.5833 139.446 88.1667 139.146 90.2H152.196ZM182.049 86.5C182.049 87.9 181.649 89.1333 180.849 90.2C180.083 91.2333 178.899 91.9167 177.299 92.25C179.099 92.55 180.516 93.1833 181.549 94.15C182.583 95.1167 183.099 96.4333 183.099 98.1V98.25C183.099 99.45 182.849 100.55 182.349 101.55C181.849 102.55 181.133 103.417 180.199 104.15C179.266 104.883 178.133 105.467 176.799 105.9C175.466 106.3 173.983 106.5 172.349 106.5C168.849 106.5 166.149 105.7 164.249 104.1C162.383 102.5 161.316 100.267 161.049 97.4H166.599C166.866 98.8333 167.433 99.95 168.299 100.75C169.166 101.517 170.499 101.9 172.299 101.9C173.866 101.9 175.016 101.583 175.749 100.95C176.483 100.283 176.849 99.3667 176.849 98.2V98.05C176.849 95.75 175.366 94.6 172.399 94.6H168.799V90.55H171.899C173.266 90.55 174.249 90.2833 174.849 89.75C175.483 89.2167 175.799 88.4 175.799 87.3V87.15C175.799 86.25 175.499 85.5167 174.899 84.95C174.333 84.35 173.349 84.05 171.949 84.05C169.416 84.05 167.849 85.2667 167.249 87.7H161.749C161.916 86.2 162.316 84.9167 162.949 83.85C163.583 82.7833 164.366 81.9167 165.299 81.25C166.233 80.5833 167.283 80.1 168.449 79.8C169.649 79.4667 170.899 79.3 172.199 79.3C173.599 79.3 174.899 79.4667 176.099 79.8C177.299 80.1 178.333 80.55 179.199 81.15C180.099 81.75 180.799 82.5 181.299 83.4C181.799 84.2667 182.049 85.25 182.049 86.35V86.5ZM195.034 94.9C194.868 96.3667 194.668 97.6333 194.434 98.7C194.201 99.7667 193.884 100.7 193.484 101.5H203.634V84.3H195.684C195.618 85.9 195.534 87.6667 195.434 89.6C195.334 91.5333 195.201 93.3 195.034 94.9ZM190.234 112.35H185.084V101.5H186.734C187.668 101.167 188.318 100.4 188.684 99.2C189.084 97.9667 189.401 96.4 189.634 94.5C189.768 93.4 189.884 92.1833 189.984 90.85C190.084 89.4833 190.168 88.1333 190.234 86.8C190.301 85.4667 190.351 84.2 190.384 83C190.418 81.7667 190.434 80.7167 190.434 79.85H209.634V101.5H213.434V112.35H208.284L208.084 106H190.434L190.234 112.35ZM234.119 94.9H223.269V106H217.219V79.85H223.269V90.4H234.119V79.85H240.169V106H234.119V94.9ZM258.446 101.8C260.713 101.8 262.48 101.033 263.746 99.5C265.013 97.9333 265.646 95.8 265.646 93.1V92.75C265.646 90.05 265.013 87.9333 263.746 86.4C262.48 84.8333 260.713 84.05 258.446 84.05C256.18 84.05 254.396 84.8167 253.096 86.35C251.83 87.8833 251.196 90 251.196 92.7V93.1C251.196 95.8 251.83 97.9333 253.096 99.5C254.363 101.033 256.146 101.8 258.446 101.8ZM258.396 106.5C256.463 106.5 254.68 106.183 253.046 105.55C251.413 104.917 249.996 104.017 248.796 102.85C247.596 101.683 246.663 100.283 245.996 98.65C245.33 97.0167 244.996 95.2 244.996 93.2V92.8C244.996 90.7667 245.33 88.9333 245.996 87.3C246.696 85.6333 247.646 84.2167 248.846 83.05C250.046 81.85 251.463 80.9333 253.096 80.3C254.73 79.6333 256.513 79.3 258.446 79.3C260.346 79.3 262.113 79.6167 263.746 80.25C265.38 80.8833 266.796 81.8 267.996 83C269.196 84.1667 270.13 85.5667 270.796 87.2C271.496 88.8333 271.846 90.65 271.846 92.65V93.05C271.846 95.0833 271.496 96.9333 270.796 98.6C270.13 100.233 269.196 101.65 267.996 102.85C266.796 104.017 265.38 104.917 263.746 105.55C262.113 106.183 260.33 106.5 258.396 106.5ZM288.263 75.65C286.163 75.65 284.463 75.0167 283.163 73.75C281.863 72.45 281.146 70.75 281.013 68.65H285.563C285.629 69.5167 285.863 70.2833 286.263 70.95C286.696 71.5833 287.363 71.9 288.263 71.9C289.196 71.9 289.879 71.5833 290.313 70.95C290.779 70.2833 291.063 69.5167 291.163 68.65H295.663C295.529 70.75 294.779 72.45 293.413 73.75C292.079 75.0167 290.363 75.65 288.263 75.65ZM276.713 106V79.85H282.763V98.35L294.063 79.85H300.063V106H294.063V87.5L282.763 106H276.713ZM329.844 106.5C327.844 106.5 326.011 106.183 324.344 105.55C322.711 104.917 321.294 103.95 320.094 102.65C318.928 101.35 318.028 99.7 317.394 97.7C316.761 95.7 316.444 93.3167 316.444 90.55V88.7C316.444 85.8 316.694 83.1167 317.194 80.65C317.728 78.1833 318.578 76.0333 319.744 74.2C320.911 72.3667 322.461 70.9 324.394 69.8C326.328 68.7 328.728 68.0833 331.594 67.95L333.194 67.9C335.094 67.8 336.661 67.6833 337.894 67.55C339.161 67.4167 340.178 67.2167 340.944 66.95V71.7C340.178 72.0333 339.211 72.3 338.044 72.5C336.911 72.7 335.261 72.8667 333.094 73L331.794 73.1C329.961 73.2 328.394 73.5667 327.094 74.2C325.828 74.8 324.778 75.6333 323.944 76.7C323.111 77.7333 322.461 79 321.994 80.5C321.561 81.9667 321.261 83.6167 321.094 85.45H321.344C322.211 83.75 323.444 82.3667 325.044 81.3C326.644 80.2333 328.694 79.7 331.194 79.7C332.994 79.7 334.644 80.0333 336.144 80.7C337.644 81.3333 338.911 82.2333 339.944 83.4C341.011 84.5667 341.828 85.95 342.394 87.55C342.994 89.15 343.294 90.8833 343.294 92.75V93.05C343.294 95.15 342.944 97.0333 342.244 98.7C341.578 100.333 340.644 101.733 339.444 102.9C338.244 104.067 336.811 104.967 335.144 105.6C333.511 106.2 331.744 106.5 329.844 106.5ZM329.894 101.8C332.161 101.8 333.928 101.05 335.194 99.55C336.461 98.0167 337.094 95.8667 337.094 93.1V92.9C337.094 90.2333 336.511 88.1667 335.344 86.7C334.178 85.2 332.444 84.45 330.144 84.45C327.811 84.45 325.978 85.2167 324.644 86.75C323.311 88.25 322.644 90.35 322.644 93.05V93.3C322.644 95.9 323.278 97.9667 324.544 99.5C325.811 101.033 327.594 101.8 329.894 101.8ZM355.005 106.5C353.805 106.5 352.672 106.35 351.605 106.05C350.538 105.75 349.605 105.3 348.805 104.7C348.038 104.067 347.422 103.267 346.955 102.3C346.488 101.3 346.255 100.117 346.255 98.75C346.255 97.2167 346.605 95.9333 347.305 94.9C348.005 93.8333 348.955 92.9833 350.155 92.35C351.355 91.6833 352.772 91.2 354.405 90.9C356.038 90.6 357.788 90.45 359.655 90.45H362.905V89.1C362.905 87.3333 362.555 86.0167 361.855 85.15C361.188 84.2833 359.955 83.85 358.155 83.85C356.555 83.85 355.355 84.2167 354.555 84.95C353.788 85.65 353.322 86.65 353.155 87.95H347.305C347.438 86.4167 347.822 85.1167 348.455 84.05C349.088 82.95 349.905 82.05 350.905 81.35C351.905 80.65 353.055 80.1333 354.355 79.8C355.655 79.4667 357.038 79.3 358.505 79.3C359.972 79.3 361.338 79.4667 362.605 79.8C363.872 80.1 364.972 80.6333 365.905 81.4C366.872 82.1333 367.622 83.1167 368.155 84.35C368.688 85.55 368.955 87.05 368.955 88.85V106H363.005V102.8C362.138 103.933 361.088 104.833 359.855 105.5C358.622 106.167 357.005 106.5 355.005 106.5ZM356.455 102.15C358.322 102.15 359.855 101.7 361.055 100.8C362.288 99.8667 362.905 98.55 362.905 96.85V94.25H359.805C357.505 94.25 355.672 94.5667 354.305 95.2C352.938 95.8 352.255 96.9 352.255 98.5C352.255 99.6 352.572 100.483 353.205 101.15C353.872 101.817 354.955 102.15 356.455 102.15ZM375.289 79.85H381.339V84.05C381.706 83.4167 382.173 82.8167 382.739 82.25C383.306 81.6833 383.956 81.1833 384.689 80.75C385.456 80.3167 386.273 79.9667 387.139 79.7C388.006 79.4333 388.923 79.3 389.889 79.3C391.523 79.3 393.039 79.6 394.439 80.2C395.873 80.8 397.106 81.6667 398.139 82.8C399.173 83.9333 399.989 85.3333 400.589 87C401.189 88.6333 401.489 90.5 401.489 92.6V93C401.489 95.1 401.189 96.9833 400.589 98.65C400.023 100.317 399.223 101.733 398.189 102.9C397.189 104.067 395.973 104.967 394.539 105.6C393.139 106.2 391.589 106.5 389.889 106.5C387.789 106.5 386.006 106.05 384.539 105.15C383.106 104.25 382.039 103.167 381.339 101.9V114.95H375.289V79.85ZM388.389 101.7C390.623 101.7 392.323 100.983 393.489 99.55C394.689 98.0833 395.289 95.9333 395.289 93.1V92.7C395.289 91.2667 395.106 90.0167 394.739 88.95C394.406 87.85 393.923 86.9333 393.289 86.2C392.656 85.4667 391.923 84.9333 391.089 84.6C390.256 84.2333 389.339 84.05 388.339 84.05C386.239 84.05 384.506 84.7667 383.139 86.2C381.806 87.6 381.139 89.7667 381.139 92.7V93.1C381.139 96.0333 381.789 98.2 383.089 99.6C384.423 101 386.189 101.7 388.389 101.7Z" fill="#2B0C3E"/>
</svg>
