<svg width="231" height="39" viewBox="0 0 231 39" fill="none" xmlns="http://www.w3.org/2000/svg">
<path d="M50.9164 3.2787C45.4896 5.46216 41.3684 12.7036 40.9429 13.272C40.8968 13.3329 40.8422 13.4042 40.7962 13.4659C40.7868 13.4641 40.7834 13.4589 40.7723 13.4572C39.79 13.3146 32.4753 13.0626 32.4753 13.0626C28.8222 13.0626 25.2109 13.3146 24.2268 13.4572C24.2158 13.4581 24.2132 13.4633 24.203 13.4659C24.1569 13.4042 24.1023 13.3329 24.0571 13.272C23.6325 12.7044 19.5113 5.46303 14.0828 3.2787C7.70695 0.711041 0 2.80411 0 2.80411C0 2.80411 5.55808 2.74674 8.10347 7.72994C10.0213 11.4806 7.94998 14.2908 7.94998 14.2908C7.94998 14.2908 10.6216 13.2877 14.0811 16.0309C16.3792 17.8554 17.6071 23.1698 17.6071 23.1698C17.6071 23.1698 21.5774 22.2128 23.583 23.0915C28.2773 25.1429 30.954 28.1608 31.9798 29.5072C31.9406 32.4799 31.7692 35.4952 31.5339 35.8751C30.6325 37.3249 29.159 37.3814 28.2585 37.6135C27.3606 37.8412 26.6077 37.9334 27.0195 38.388C27.6301 39.0599 32.3491 39.0007 32.5 38.9973C32.6501 39.0007 37.3691 39.0599 37.9788 38.388C38.3915 37.9351 37.6402 37.8412 36.7415 37.6135C35.8401 37.3814 34.3666 37.3249 33.4661 35.8751C33.2316 35.4943 33.0577 32.4799 33.0219 29.5072C34.046 28.1608 36.7236 25.1429 41.4161 23.0915C43.4217 22.2128 47.3937 23.1698 47.3937 23.1698C47.3937 23.1698 48.62 17.8537 50.9172 16.0309C54.3793 13.2877 57.05 14.2908 57.05 14.2908C57.05 14.2908 54.9805 11.4806 56.8965 7.72994C59.4411 2.74674 65 2.80411 65 2.80411C65 2.80411 57.2913 0.711041 50.9164 3.2787ZM29.0465 22.6987C28.0726 21.6643 25.65 18.7629 25.65 18.7629C25.65 18.7629 27.8748 20.3387 29.4302 22.3336C31.0495 24.4162 31.9832 27.5619 31.9832 27.5932C31.9832 27.6245 29.9034 23.6079 29.0465 22.6987ZM36.3518 22.1771C35.4956 23.0855 33.4116 27.1056 33.4116 27.0717C33.4116 27.0395 34.3462 23.8956 35.968 21.8121C37.5226 19.8146 39.7473 18.2413 39.7473 18.2413C39.7473 18.2413 37.3256 21.1384 36.3518 22.1771Z" fill="#F82179"/>
<path d="M71.5196 2.98H78.6876C80.7596 2.98 82.3649 3.39067 83.5036 4.212C84.6609 5.03333 85.2396 6.35867 85.2396 8.188V8.3C85.2396 9.308 84.9969 10.1853 84.5116 10.932C84.0263 11.66 83.2143 12.2013 82.0756 12.556C83.4383 12.8547 84.4463 13.3867 85.0996 14.152C85.7529 14.8987 86.0796 15.944 86.0796 17.288V17.4C86.0796 19.2667 85.4823 20.6667 84.2876 21.6C83.1116 22.5333 81.4223 23 79.2196 23H71.5196V2.98ZM78.7716 20.34C80.0223 20.34 80.9369 20.0693 81.5156 19.528C82.1129 18.9867 82.4116 18.1933 82.4116 17.148V17.036C82.4116 15.9907 82.1036 15.216 81.4876 14.712C80.8903 14.1893 79.9009 13.928 78.5196 13.928H75.1596V20.34H78.7716ZM78.2396 11.408C79.4716 11.408 80.3489 11.1747 80.8716 10.708C81.3943 10.2413 81.6556 9.49467 81.6556 8.468V8.356C81.6556 7.404 81.3756 6.71333 80.8156 6.284C80.2556 5.85467 79.3783 5.64 78.1836 5.64H75.1596V11.408H78.2396ZM93.4618 2.98H98.3338L104.942 23H101.078L99.4818 18.044H91.8378L90.2698 23H86.7698L93.4618 2.98ZM92.7058 15.328H98.6138L95.6738 6.032L92.7058 15.328ZM106.987 2.98H113.707C114.808 2.98 115.816 3.10133 116.731 3.344C117.645 3.568 118.429 3.92267 119.083 4.408C119.755 4.87467 120.268 5.48133 120.623 6.228C120.996 6.956 121.183 7.83333 121.183 8.86V8.972C121.183 9.756 121.061 10.4467 120.819 11.044C120.595 11.6413 120.277 12.164 119.867 12.612C119.475 13.0413 119.008 13.396 118.467 13.676C117.925 13.956 117.347 14.18 116.731 14.348L122.359 23H118.327L113.091 14.908H110.711V23H106.987V2.98ZM113.707 12.248C116.245 12.248 117.515 11.184 117.515 9.056V8.944C117.515 7.78667 117.179 6.984 116.507 6.536C115.835 6.088 114.901 5.864 113.707 5.864H110.711V12.248H113.707ZM122.748 13.788H129.468V16.588H122.748V13.788ZM138.894 23.28C137.532 23.28 136.356 23.1213 135.366 22.804C134.396 22.468 133.584 22.02 132.93 21.46C132.296 20.8813 131.81 20.2 131.474 19.416C131.138 18.6133 130.933 17.736 130.858 16.784H134.442C134.498 17.288 134.601 17.764 134.75 18.212C134.918 18.66 135.161 19.052 135.478 19.388C135.814 19.724 136.253 19.9947 136.794 20.2C137.354 20.3867 138.054 20.48 138.894 20.48C140.014 20.48 140.92 20.2 141.61 19.64C142.32 19.08 142.674 18.3333 142.674 17.4C142.674 16.9333 142.609 16.5413 142.478 16.224C142.348 15.888 142.124 15.608 141.806 15.384C141.489 15.1413 141.06 14.936 140.518 14.768C139.977 14.6 139.305 14.4507 138.502 14.32C137.308 14.152 136.262 13.9373 135.366 13.676C134.489 13.396 133.761 13.032 133.182 12.584C132.604 12.1173 132.165 11.548 131.866 10.876C131.586 10.204 131.446 9.40133 131.446 8.468C131.446 7.64667 131.614 6.89067 131.95 6.2C132.286 5.49067 132.753 4.884 133.35 4.38C133.966 3.85733 134.704 3.456 135.562 3.176C136.421 2.87733 137.373 2.728 138.418 2.728C140.584 2.728 142.282 3.21333 143.514 4.184C144.765 5.15467 145.493 6.60133 145.698 8.524H142.282C142.096 7.46 141.694 6.69467 141.078 6.228C140.462 5.76133 139.576 5.528 138.418 5.528C137.28 5.528 136.421 5.77067 135.842 6.256C135.264 6.74133 134.974 7.376 134.974 8.16C134.974 8.57067 135.021 8.93467 135.114 9.252C135.226 9.55067 135.432 9.82133 135.73 10.064C136.048 10.288 136.468 10.484 136.99 10.652C137.532 10.82 138.241 10.9693 139.118 11.1C140.294 11.268 141.321 11.4827 142.198 11.744C143.094 12.0053 143.841 12.3693 144.438 12.836C145.054 13.3027 145.512 13.8813 145.81 14.572C146.109 15.244 146.258 16.084 146.258 17.092C146.258 17.9693 146.081 18.7813 145.726 19.528C145.372 20.2747 144.868 20.928 144.214 21.488C143.58 22.048 142.805 22.4867 141.89 22.804C140.994 23.1213 139.996 23.28 138.894 23.28ZM152.31 5.92H146.738V2.98H161.634V5.92H156.062V23H152.31V5.92ZM163.62 2.98H170.34C171.441 2.98 172.449 3.10133 173.364 3.344C174.279 3.568 175.063 3.92267 175.716 4.408C176.388 4.87467 176.901 5.48133 177.256 6.228C177.629 6.956 177.816 7.83333 177.816 8.86V8.972C177.816 9.756 177.695 10.4467 177.452 11.044C177.228 11.6413 176.911 12.164 176.5 12.612C176.108 13.0413 175.641 13.396 175.1 13.676C174.559 13.956 173.98 14.18 173.364 14.348L178.992 23H174.96L169.724 14.908H167.344V23H163.62V2.98ZM170.34 12.248C172.879 12.248 174.148 11.184 174.148 9.056V8.944C174.148 7.78667 173.812 6.984 173.14 6.536C172.468 6.088 171.535 5.864 170.34 5.864H167.344V12.248H170.34ZM180.957 2.98H193.473V5.92H184.681V11.408H191.737V14.208H184.681V20.06H193.949V23H180.957V2.98ZM196.298 2.98H208.814V5.92H200.022V11.408H207.078V14.208H200.022V20.06H209.29V23H196.298V2.98ZM215.643 5.92H210.071V2.98H224.967V5.92H219.395V23H215.643V5.92Z" fill="#F82179"/>
<path d="M71.3132 29.85H73.8732C74.6132 29.85 75.1865 29.9967 75.5932 30.29C76.0065 30.5833 76.2132 31.0567 76.2132 31.71V31.75C76.2132 32.11 76.1265 32.4233 75.9532 32.69C75.7798 32.95 75.4898 33.1433 75.0832 33.27C75.5698 33.3767 75.9298 33.5667 76.1632 33.84C76.3965 34.1067 76.5132 34.48 76.5132 34.96V35C76.5132 35.6667 76.2998 36.1667 75.8732 36.5C75.4532 36.8333 74.8498 37 74.0632 37H71.3132V29.85ZM73.9032 36.05C74.3498 36.05 74.6765 35.9533 74.8832 35.76C75.0965 35.5667 75.2032 35.2833 75.2032 34.91V34.87C75.2032 34.4967 75.0932 34.22 74.8732 34.04C74.6598 33.8533 74.3065 33.76 73.8132 33.76H72.6132V36.05H73.9032ZM73.7132 32.86C74.1532 32.86 74.4665 32.7767 74.6532 32.61C74.8398 32.4433 74.9332 32.1767 74.9332 31.81V31.77C74.9332 31.43 74.8332 31.1833 74.6332 31.03C74.4332 30.8767 74.1198 30.8 73.6932 30.8H72.6132V32.86H73.7132ZM82.3387 31.77H83.5487V37H82.3387V31.77ZM77.6487 31.77H78.8587V33.49H79.7487C80.042 33.49 80.312 33.5267 80.5587 33.6C80.8054 33.6667 81.0154 33.7733 81.1887 33.92C81.3687 34.06 81.5087 34.24 81.6087 34.46C81.7087 34.68 81.7587 34.9367 81.7587 35.23V35.26C81.7587 35.84 81.572 36.2767 81.1987 36.57C80.8254 36.8567 80.332 37 79.7187 37H77.6487V31.77ZM79.5787 36.12C79.912 36.12 80.1554 36.0533 80.3087 35.92C80.4687 35.78 80.5487 35.5567 80.5487 35.25V35.22C80.5487 34.94 80.472 34.73 80.3187 34.59C80.172 34.4433 79.9254 34.37 79.5787 34.37H78.8587V36.12H79.5787ZM87.2925 37.1C86.9058 37.1 86.5491 37.04 86.2225 36.92C85.9025 36.7933 85.6225 36.6167 85.3825 36.39C85.1491 36.1567 84.9658 35.8767 84.8325 35.55C84.7058 35.2233 84.6425 34.8533 84.6425 34.44V34.36C84.6425 33.9533 84.7058 33.5867 84.8325 33.26C84.9658 32.9267 85.1491 32.6433 85.3825 32.41C85.6158 32.17 85.8891 31.9867 86.2025 31.86C86.5225 31.7267 86.8691 31.66 87.2425 31.66C87.5691 31.66 87.8791 31.71 88.1725 31.81C88.4725 31.91 88.7358 32.0667 88.9625 32.28C89.1891 32.4933 89.3691 32.7667 89.5025 33.1C89.6425 33.4333 89.7125 33.8333 89.7125 34.3V34.65H85.8825C85.9025 35.15 86.0325 35.5333 86.2725 35.8C86.5191 36.0667 86.8691 36.2 87.3225 36.2C87.6891 36.2 87.9691 36.13 88.1625 35.99C88.3558 35.85 88.4758 35.6533 88.5225 35.4H89.6925C89.6058 35.9533 89.3525 36.3767 88.9325 36.67C88.5125 36.9567 87.9658 37.1 87.2925 37.1ZM88.5125 33.84C88.4791 33.3867 88.3525 33.0567 88.1325 32.85C87.9191 32.6433 87.6225 32.54 87.2425 32.54C86.8758 32.54 86.5758 32.6567 86.3425 32.89C86.1091 33.1167 85.9625 33.4333 85.9025 33.84H88.5125ZM94.6032 33.1C94.6032 33.38 94.5232 33.6267 94.3632 33.84C94.2099 34.0467 93.9732 34.1833 93.6532 34.25C94.0132 34.31 94.2966 34.4367 94.5032 34.63C94.7099 34.8233 94.8132 35.0867 94.8132 35.42V35.45C94.8132 35.69 94.7632 35.91 94.6632 36.11C94.5632 36.31 94.4199 36.4833 94.2332 36.63C94.0466 36.7767 93.8199 36.8933 93.5532 36.98C93.2866 37.06 92.9899 37.1 92.6632 37.1C91.9632 37.1 91.4232 36.94 91.0432 36.62C90.6699 36.3 90.4566 35.8533 90.4032 35.28H91.5132C91.5666 35.5667 91.6799 35.79 91.8532 35.95C92.0266 36.1033 92.2932 36.18 92.6532 36.18C92.9666 36.18 93.1966 36.1167 93.3432 35.99C93.4899 35.8567 93.5632 35.6733 93.5632 35.44V35.41C93.5632 34.95 93.2666 34.72 92.6732 34.72H91.9532V33.91H92.5732C92.8466 33.91 93.0432 33.8567 93.1632 33.75C93.2899 33.6433 93.3532 33.48 93.3532 33.26V33.23C93.3532 33.05 93.2932 32.9033 93.1732 32.79C93.0599 32.67 92.8632 32.61 92.5832 32.61C92.0766 32.61 91.7632 32.8533 91.6432 33.34H90.5432C90.5766 33.04 90.6566 32.7833 90.7832 32.57C90.9099 32.3567 91.0666 32.1833 91.2532 32.05C91.4399 31.9167 91.6499 31.82 91.8832 31.76C92.1232 31.6933 92.3732 31.66 92.6332 31.66C92.9132 31.66 93.1732 31.6933 93.4132 31.76C93.6532 31.82 93.8599 31.91 94.0332 32.03C94.2132 32.15 94.3532 32.3 94.4532 32.48C94.5532 32.6533 94.6032 32.85 94.6032 33.07V33.1ZM97.3202 34.78C97.2869 35.0733 97.2469 35.3267 97.2002 35.54C97.1535 35.7533 97.0902 35.94 97.0102 36.1H99.0402V32.66H97.4502C97.4369 32.98 97.4202 33.3333 97.4002 33.72C97.3802 34.1067 97.3535 34.46 97.3202 34.78ZM96.3602 38.27H95.3302V36.1H95.6602C95.8469 36.0333 95.9769 35.88 96.0502 35.64C96.1302 35.3933 96.1935 35.08 96.2402 34.7C96.2669 34.48 96.2902 34.2367 96.3102 33.97C96.3302 33.6967 96.3469 33.4267 96.3602 33.16C96.3735 32.8933 96.3835 32.64 96.3902 32.4C96.3969 32.1533 96.4002 31.9433 96.4002 31.77H100.24V36.1H101V38.27H99.9702L99.9302 37H96.4002L96.3602 38.27ZM105.257 34.78H103.087V37H101.877V31.77H103.087V33.88H105.257V31.77H106.467V37H105.257V34.78ZM110.243 36.16C110.696 36.16 111.049 36.0067 111.303 35.7C111.556 35.3867 111.683 34.96 111.683 34.42V34.35C111.683 33.81 111.556 33.3867 111.303 33.08C111.049 32.7667 110.696 32.61 110.243 32.61C109.789 32.61 109.433 32.7633 109.173 33.07C108.919 33.3767 108.793 33.8 108.793 34.34V34.42C108.793 34.96 108.919 35.3867 109.173 35.7C109.426 36.0067 109.783 36.16 110.243 36.16ZM110.233 37.1C109.846 37.1 109.489 37.0367 109.163 36.91C108.836 36.7833 108.553 36.6033 108.313 36.37C108.073 36.1367 107.886 35.8567 107.753 35.53C107.619 35.2033 107.553 34.84 107.553 34.44V34.36C107.553 33.9533 107.619 33.5867 107.753 33.26C107.893 32.9267 108.083 32.6433 108.323 32.41C108.563 32.17 108.846 31.9867 109.173 31.86C109.499 31.7267 109.856 31.66 110.243 31.66C110.623 31.66 110.976 31.7233 111.303 31.85C111.629 31.9767 111.913 32.16 112.153 32.4C112.393 32.6333 112.579 32.9133 112.713 33.24C112.853 33.5667 112.923 33.93 112.923 34.33V34.41C112.923 34.8167 112.853 35.1867 112.713 35.52C112.579 35.8467 112.393 36.13 112.153 36.37C111.913 36.6033 111.629 36.7833 111.303 36.91C110.976 37.0367 110.619 37.1 110.233 37.1ZM116.326 30.93C115.906 30.93 115.566 30.8033 115.306 30.55C115.046 30.29 114.903 29.95 114.876 29.53H115.786C115.799 29.7033 115.846 29.8567 115.926 29.99C116.013 30.1167 116.146 30.18 116.326 30.18C116.513 30.18 116.649 30.1167 116.736 29.99C116.829 29.8567 116.886 29.7033 116.906 29.53H117.806C117.779 29.95 117.629 30.29 117.356 30.55C117.089 30.8033 116.746 30.93 116.326 30.93ZM114.016 37V31.77H115.226V35.47L117.486 31.77H118.686V37H117.486V33.3L115.226 37H114.016ZM124.882 37.1C124.482 37.1 124.116 37.0367 123.782 36.91C123.456 36.7833 123.172 36.59 122.932 36.33C122.699 36.07 122.519 35.74 122.392 35.34C122.266 34.94 122.202 34.4633 122.202 33.91V33.54C122.202 32.96 122.252 32.4233 122.352 31.93C122.459 31.4367 122.629 31.0067 122.862 30.64C123.096 30.2733 123.406 29.98 123.792 29.76C124.179 29.54 124.659 29.4167 125.232 29.39L125.552 29.38C125.932 29.36 126.246 29.3367 126.492 29.31C126.746 29.2833 126.949 29.2433 127.102 29.19V30.14C126.949 30.2067 126.756 30.26 126.522 30.3C126.296 30.34 125.966 30.3733 125.532 30.4L125.272 30.42C124.906 30.44 124.592 30.5133 124.332 30.64C124.079 30.76 123.869 30.9267 123.702 31.14C123.536 31.3467 123.406 31.6 123.312 31.9C123.226 32.1933 123.166 32.5233 123.132 32.89H123.182C123.356 32.55 123.602 32.2733 123.922 32.06C124.242 31.8467 124.652 31.74 125.152 31.74C125.512 31.74 125.842 31.8067 126.142 31.94C126.442 32.0667 126.696 32.2467 126.902 32.48C127.116 32.7133 127.279 32.99 127.392 33.31C127.512 33.63 127.572 33.9767 127.572 34.35V34.41C127.572 34.83 127.502 35.2067 127.362 35.54C127.229 35.8667 127.042 36.1467 126.802 36.38C126.562 36.6133 126.276 36.7933 125.942 36.92C125.616 37.04 125.262 37.1 124.882 37.1ZM124.892 36.16C125.346 36.16 125.699 36.01 125.952 35.71C126.206 35.4033 126.332 34.9733 126.332 34.42V34.38C126.332 33.8467 126.216 33.4333 125.982 33.14C125.749 32.84 125.402 32.69 124.942 32.69C124.476 32.69 124.109 32.8433 123.842 33.15C123.576 33.45 123.442 33.87 123.442 34.41V34.46C123.442 34.98 123.569 35.3933 123.822 35.7C124.076 36.0067 124.432 36.16 124.892 36.16ZM130.034 37.1C129.794 37.1 129.568 37.07 129.354 37.01C129.141 36.95 128.954 36.86 128.794 36.74C128.641 36.6133 128.518 36.4533 128.424 36.26C128.331 36.06 128.284 35.8233 128.284 35.55C128.284 35.2433 128.354 34.9867 128.494 34.78C128.634 34.5667 128.824 34.3967 129.064 34.27C129.304 34.1367 129.588 34.04 129.914 33.98C130.241 33.92 130.591 33.89 130.964 33.89H131.614V33.62C131.614 33.2667 131.544 33.0033 131.404 32.83C131.271 32.6567 131.024 32.57 130.664 32.57C130.344 32.57 130.104 32.6433 129.944 32.79C129.791 32.93 129.698 33.13 129.664 33.39H128.494C128.521 33.0833 128.598 32.8233 128.724 32.61C128.851 32.39 129.014 32.21 129.214 32.07C129.414 31.93 129.644 31.8267 129.904 31.76C130.164 31.6933 130.441 31.66 130.734 31.66C131.028 31.66 131.301 31.6933 131.554 31.76C131.808 31.82 132.028 31.9267 132.214 32.08C132.408 32.2267 132.558 32.4233 132.664 32.67C132.771 32.91 132.824 33.21 132.824 33.57V37H131.634V36.36C131.461 36.5867 131.251 36.7667 131.004 36.9C130.758 37.0333 130.434 37.1 130.034 37.1ZM130.324 36.23C130.698 36.23 131.004 36.14 131.244 35.96C131.491 35.7733 131.614 35.51 131.614 35.17V34.65H130.994C130.534 34.65 130.168 34.7133 129.894 34.84C129.621 34.96 129.484 35.18 129.484 35.5C129.484 35.72 129.548 35.8967 129.674 36.03C129.808 36.1633 130.024 36.23 130.324 36.23ZM134.211 31.77H135.421V32.61C135.495 32.4833 135.588 32.3633 135.701 32.25C135.815 32.1367 135.945 32.0367 136.091 31.95C136.245 31.8633 136.408 31.7933 136.581 31.74C136.755 31.6867 136.938 31.66 137.131 31.66C137.458 31.66 137.761 31.72 138.041 31.84C138.328 31.96 138.575 32.1333 138.781 32.36C138.988 32.5867 139.151 32.8667 139.271 33.2C139.391 33.5267 139.451 33.9 139.451 34.32V34.4C139.451 34.82 139.391 35.1967 139.271 35.53C139.158 35.8633 138.998 36.1467 138.791 36.38C138.591 36.6133 138.348 36.7933 138.061 36.92C137.781 37.04 137.471 37.1 137.131 37.1C136.711 37.1 136.355 37.01 136.061 36.83C135.775 36.65 135.561 36.4333 135.421 36.18V38.79H134.211V31.77ZM136.831 36.14C137.278 36.14 137.618 35.9967 137.851 35.71C138.091 35.4167 138.211 34.9867 138.211 34.42V34.34C138.211 34.0533 138.175 33.8033 138.101 33.59C138.035 33.37 137.938 33.1867 137.811 33.04C137.685 32.8933 137.538 32.7867 137.371 32.72C137.205 32.6467 137.021 32.61 136.821 32.61C136.401 32.61 136.055 32.7533 135.781 33.04C135.515 33.32 135.381 33.7533 135.381 34.34V34.42C135.381 35.0067 135.511 35.44 135.771 35.72C136.038 36 136.391 36.14 136.831 36.14ZM142.961 37V31.77H144.171V35.47L146.431 31.77H147.631V37H146.431V33.3L144.171 37H142.961ZM153.738 37.1C153.364 37.1 153.014 37.04 152.688 36.92C152.368 36.8 152.088 36.6267 151.848 36.4C151.614 36.1733 151.431 35.8967 151.298 35.57C151.164 35.2433 151.098 34.87 151.098 34.45V34.37C151.098 33.9567 151.164 33.5833 151.298 33.25C151.438 32.9167 151.628 32.6333 151.868 32.4C152.108 32.16 152.388 31.9767 152.708 31.85C153.028 31.7233 153.371 31.66 153.738 31.66C154.024 31.66 154.304 31.6967 154.578 31.77C154.851 31.8367 155.094 31.9467 155.308 32.1C155.528 32.2533 155.711 32.4567 155.858 32.71C156.004 32.9567 156.094 33.26 156.128 33.62H154.958C154.904 33.2667 154.771 33.0133 154.558 32.86C154.344 32.7067 154.078 32.63 153.758 32.63C153.551 32.63 153.361 32.67 153.188 32.75C153.014 32.8233 152.864 32.9367 152.738 33.09C152.611 33.2367 152.511 33.4167 152.438 33.63C152.371 33.8433 152.338 34.0833 152.338 34.35V34.43C152.338 35.0033 152.468 35.4367 152.728 35.73C152.988 36.0233 153.341 36.17 153.788 36.17C153.948 36.17 154.098 36.1467 154.238 36.1C154.384 36.0533 154.514 35.9833 154.628 35.89C154.741 35.7967 154.834 35.68 154.908 35.54C154.981 35.4 155.028 35.2367 155.048 35.05H156.158C156.138 35.35 156.064 35.6267 155.938 35.88C155.818 36.1267 155.654 36.3433 155.448 36.53C155.241 36.71 154.991 36.85 154.698 36.95C154.411 37.05 154.091 37.1 153.738 37.1ZM161.109 32.67H159.509V37H158.299V32.67H156.699V31.77H161.109V32.67ZM162.053 31.77H163.263V32.61C163.336 32.4833 163.43 32.3633 163.543 32.25C163.656 32.1367 163.786 32.0367 163.933 31.95C164.086 31.8633 164.25 31.7933 164.423 31.74C164.596 31.6867 164.78 31.66 164.973 31.66C165.3 31.66 165.603 31.72 165.883 31.84C166.17 31.96 166.416 32.1333 166.623 32.36C166.83 32.5867 166.993 32.8667 167.113 33.2C167.233 33.5267 167.293 33.9 167.293 34.32V34.4C167.293 34.82 167.233 35.1967 167.113 35.53C167 35.8633 166.84 36.1467 166.633 36.38C166.433 36.6133 166.19 36.7933 165.903 36.92C165.623 37.04 165.313 37.1 164.973 37.1C164.553 37.1 164.196 37.01 163.903 36.83C163.616 36.65 163.403 36.4333 163.263 36.18V38.79H162.053V31.77ZM164.673 36.14C165.12 36.14 165.46 35.9967 165.693 35.71C165.933 35.4167 166.053 34.9867 166.053 34.42V34.34C166.053 34.0533 166.016 33.8033 165.943 33.59C165.876 33.37 165.78 33.1867 165.653 33.04C165.526 32.8933 165.38 32.7867 165.213 32.72C165.046 32.6467 164.863 32.61 164.663 32.61C164.243 32.61 163.896 32.7533 163.623 33.04C163.356 33.32 163.223 33.7533 163.223 34.34V34.42C163.223 35.0067 163.353 35.44 163.613 35.72C163.88 36 164.233 36.14 164.673 36.14ZM168.381 37V31.77H169.591V35.47L171.851 31.77H173.051V37H171.851V33.3L169.591 37H168.381ZM178.356 32.67H176.756V37H175.546V32.67H173.946V31.77H178.356V32.67ZM185.361 31.67C185.748 31.69 186.108 31.76 186.441 31.88C186.774 32 187.064 32.1733 187.311 32.4C187.558 32.62 187.751 32.89 187.891 33.21C188.038 33.53 188.111 33.9 188.111 34.32V34.4C188.111 34.82 188.038 35.1933 187.891 35.52C187.751 35.8467 187.558 36.1233 187.311 36.35C187.064 36.5767 186.774 36.7533 186.441 36.88C186.108 37.0067 185.748 37.0767 185.361 37.09V38.79H184.171V37.09C183.784 37.07 183.421 37 183.081 36.88C182.748 36.76 182.458 36.59 182.211 36.37C181.964 36.15 181.768 35.88 181.621 35.56C181.481 35.2333 181.411 34.86 181.411 34.44V34.36C181.411 33.94 181.481 33.5667 181.621 33.24C181.768 32.9133 181.964 32.6367 182.211 32.41C182.458 32.1833 182.748 32.01 183.081 31.89C183.421 31.7633 183.784 31.69 184.171 31.67V29.35H185.361V31.67ZM185.361 36.21C185.814 36.1833 186.181 36.0167 186.461 35.71C186.741 35.4033 186.881 34.9767 186.881 34.43V34.36C186.881 33.7933 186.741 33.36 186.461 33.06C186.188 32.7533 185.821 32.5867 185.361 32.56V36.21ZM184.171 32.56C183.711 32.58 183.341 32.7433 183.061 33.05C182.781 33.3567 182.641 33.7833 182.641 34.33V34.41C182.641 34.9767 182.781 35.41 183.061 35.71C183.341 36.01 183.711 36.1733 184.171 36.2V32.56ZM190.575 36.47L188.505 31.77H189.815L191.205 35.14L192.485 31.77H193.665L190.815 38.79H189.625L190.575 36.47ZM195.67 34.78C195.636 35.0733 195.596 35.3267 195.55 35.54C195.503 35.7533 195.44 35.94 195.36 36.1H197.39V32.66H195.8C195.786 32.98 195.77 33.3333 195.75 33.72C195.73 34.1067 195.703 34.46 195.67 34.78ZM194.71 38.27H193.68V36.1H194.01C194.196 36.0333 194.326 35.88 194.4 35.64C194.48 35.3933 194.543 35.08 194.59 34.7C194.616 34.48 194.64 34.2367 194.66 33.97C194.68 33.6967 194.696 33.4267 194.71 33.16C194.723 32.8933 194.733 32.64 194.74 32.4C194.746 32.1533 194.75 31.9433 194.75 31.77H198.59V36.1H199.35V38.27H198.32L198.28 37H194.75L194.71 38.27Z" fill="#F82179"/>
<defs>
<linearGradient id="paint0_linear_2025_7689" x1="32.5001" y1="39.0002" x2="32.5001" y2="2.00051" gradientUnits="userSpaceOnUse">
<stop stop-color="#F82179"/>
<stop offset="1" stop-color="#F82179"/>
</linearGradient>
</defs>
</svg>
