<svg width="231" height="37" viewBox="0 0 231 37" fill="none" xmlns="http://www.w3.org/2000/svg">
<path d="M49.3497 3.20958C44.0899 5.27502 40.0955 12.125 39.6831 12.6627C39.6384 12.7203 39.5855 12.7877 39.5409 12.8461C39.5318 12.8445 39.5285 12.8395 39.5178 12.8379C38.5657 12.703 31.476 12.4646 31.476 12.4646C27.9354 12.4646 24.4352 12.703 23.4814 12.8379C23.4707 12.8387 23.4682 12.8436 23.4583 12.8461C23.4136 12.7877 23.3607 12.7203 23.3169 12.6627C22.9053 12.1258 18.9109 5.27584 13.6495 3.20958C7.46981 0.780715 0 2.76064 0 2.76064C0 2.76064 5.38706 2.70637 7.85413 7.42021C9.71291 10.9681 7.70536 13.6264 7.70536 13.6264C7.70536 13.6264 10.2948 12.6775 13.6478 15.2725C15.8752 16.9984 17.0654 22.0255 17.0654 22.0255C17.0654 22.0255 20.9135 21.1202 22.8574 21.9515C27.4072 23.8919 30.0016 26.7467 30.9958 28.0203C30.9578 30.8323 30.7917 33.6847 30.5636 34.044C29.69 35.4155 28.2618 35.4689 27.389 35.6884C26.5187 35.9039 25.789 35.991 26.1882 36.421C26.7799 37.0566 31.3537 37.0007 31.5 36.9974C31.6455 37.0007 36.2193 37.0566 36.8102 36.421C37.2102 35.9927 36.4821 35.9039 35.611 35.6884C34.7374 35.4689 33.3092 35.4155 32.4364 34.044C32.2091 33.6838 32.0405 30.8323 32.0058 28.0203C32.9984 26.7467 35.5936 23.8919 40.1418 21.9515C42.0857 21.1202 45.9355 22.0255 45.9355 22.0255C45.9355 22.0255 47.124 16.9967 49.3505 15.2725C52.7061 12.6775 55.2946 13.6264 55.2946 13.6264C55.2946 13.6264 53.2887 10.9681 55.1459 7.42021C57.6121 2.70637 63 2.76064 63 2.76064C63 2.76064 55.5285 0.780715 49.3497 3.20958ZM28.1527 21.5798C27.2089 20.6014 24.8608 17.8568 24.8608 17.8568C24.8608 17.8568 27.0171 19.3475 28.5246 21.2345C30.0941 23.2045 30.9991 26.1802 30.9991 26.2098C30.9991 26.2394 28.9833 22.4399 28.1527 21.5798ZM35.2333 21.0865C34.4035 21.9457 32.3835 25.7485 32.3835 25.7164C32.3835 25.686 33.2894 22.712 34.8613 20.7411C36.368 18.8517 38.5243 17.3634 38.5243 17.3634C38.5243 17.3634 36.1771 20.1039 35.2333 21.0865Z" fill="url(#paint0_linear_247_6227)"/>
<path d="M65.968 2.84H72.112C73.888 2.84 75.264 3.192 76.24 3.896C77.232 4.6 77.728 5.736 77.728 7.304V7.4C77.728 8.264 77.52 9.016 77.104 9.656C76.688 10.28 75.992 10.744 75.016 11.048C76.184 11.304 77.048 11.76 77.608 12.416C78.168 13.056 78.448 13.952 78.448 15.104V15.2C78.448 16.8 77.936 18 76.912 18.8C75.904 19.6 74.456 20 72.568 20H65.968V2.84ZM72.184 17.72C73.256 17.72 74.04 17.488 74.536 17.024C75.048 16.56 75.304 15.88 75.304 14.984V14.888C75.304 13.992 75.04 13.328 74.512 12.896C74 12.448 73.152 12.224 71.968 12.224H69.088V17.72H72.184ZM71.728 10.064C72.784 10.064 73.536 9.864 73.984 9.464C74.432 9.064 74.656 8.424 74.656 7.544V7.448C74.656 6.632 74.416 6.04 73.936 5.672C73.456 5.304 72.704 5.12 71.68 5.12H69.088V10.064H71.728ZM84.7756 2.84H88.9516L94.6156 20H91.3036L89.9356 15.752H83.3836L82.0396 20H79.0396L84.7756 2.84ZM84.1276 13.424H89.1916L86.6716 5.456L84.1276 13.424ZM96.3683 2.84H102.128C103.072 2.84 103.936 2.944 104.72 3.152C105.504 3.344 106.176 3.648 106.736 4.064C107.312 4.464 107.752 4.984 108.056 5.624C108.376 6.248 108.536 7 108.536 7.88V7.976C108.536 8.648 108.432 9.24 108.224 9.752C108.032 10.264 107.76 10.712 107.408 11.096C107.072 11.464 106.672 11.768 106.208 12.008C105.744 12.248 105.248 12.44 104.72 12.584L109.544 20H106.088L101.6 13.064H99.5603V20H96.3683V2.84ZM102.128 10.784C104.304 10.784 105.392 9.872 105.392 8.048V7.952C105.392 6.96 105.104 6.272 104.528 5.888C103.952 5.504 103.152 5.312 102.128 5.312H99.5603V10.784H102.128ZM109.878 12.104H115.638V14.504H109.878V12.104ZM123.718 20.24C122.55 20.24 121.542 20.104 120.694 19.832C119.862 19.544 119.166 19.16 118.606 18.68C118.062 18.184 117.646 17.6 117.358 16.928C117.07 16.24 116.894 15.488 116.83 14.672H119.902C119.95 15.104 120.038 15.512 120.166 15.896C120.31 16.28 120.518 16.616 120.79 16.904C121.078 17.192 121.454 17.424 121.918 17.6C122.398 17.76 122.998 17.84 123.718 17.84C124.678 17.84 125.454 17.6 126.046 17.12C126.654 16.64 126.958 16 126.958 15.2C126.958 14.8 126.902 14.464 126.79 14.192C126.678 13.904 126.486 13.664 126.214 13.472C125.942 13.264 125.574 13.088 125.11 12.944C124.646 12.8 124.07 12.672 123.382 12.56C122.358 12.416 121.462 12.232 120.694 12.008C119.942 11.768 119.318 11.456 118.822 11.072C118.326 10.672 117.95 10.184 117.694 9.608C117.454 9.032 117.334 8.344 117.334 7.544C117.334 6.84 117.478 6.192 117.766 5.6C118.054 4.992 118.454 4.472 118.966 4.04C119.494 3.592 120.126 3.248 120.862 3.008C121.598 2.752 122.414 2.624 123.31 2.624C125.166 2.624 126.622 3.04 127.678 3.872C128.75 4.704 129.374 5.944 129.55 7.592H126.622C126.462 6.68 126.118 6.024 125.59 5.624C125.062 5.224 124.302 5.024 123.31 5.024C122.334 5.024 121.598 5.232 121.102 5.648C120.606 6.064 120.358 6.608 120.358 7.28C120.358 7.632 120.398 7.944 120.478 8.216C120.574 8.472 120.75 8.704 121.006 8.912C121.278 9.104 121.638 9.272 122.086 9.416C122.55 9.56 123.158 9.688 123.91 9.8C124.918 9.944 125.798 10.128 126.55 10.352C127.318 10.576 127.958 10.888 128.47 11.288C128.998 11.688 129.39 12.184 129.646 12.776C129.902 13.352 130.03 14.072 130.03 14.936C130.03 15.688 129.878 16.384 129.574 17.024C129.27 17.664 128.838 18.224 128.278 18.704C127.734 19.184 127.07 19.56 126.286 19.832C125.518 20.104 124.662 20.24 123.718 20.24ZM135.217 5.36H130.441V2.84H143.209V5.36H138.433V20H135.217V5.36ZM144.911 2.84H150.671C151.615 2.84 152.479 2.944 153.263 3.152C154.047 3.344 154.719 3.648 155.279 4.064C155.855 4.464 156.295 4.984 156.599 5.624C156.919 6.248 157.079 7 157.079 7.88V7.976C157.079 8.648 156.975 9.24 156.767 9.752C156.575 10.264 156.303 10.712 155.951 11.096C155.615 11.464 155.215 11.768 154.751 12.008C154.287 12.248 153.791 12.44 153.263 12.584L158.087 20H154.631L150.143 13.064H148.103V20H144.911V2.84ZM150.671 10.784C152.847 10.784 153.935 9.872 153.935 8.048V7.952C153.935 6.96 153.647 6.272 153.071 5.888C152.495 5.504 151.695 5.312 150.671 5.312H148.103V10.784H150.671ZM159.771 2.84H170.499V5.36H162.963V10.064H169.011V12.464H162.963V17.48H170.907V20H159.771V2.84ZM172.921 2.84H183.649V5.36H176.113V10.064H182.161V12.464H176.113V17.48H184.057V20H172.921V2.84ZM189.502 5.36H184.726V2.84H197.494V5.36H192.718V20H189.502V5.36Z" fill="#F82179"/>
<path d="M65.3132 27.85H67.8732C68.6132 27.85 69.1865 27.9967 69.5932 28.29C70.0065 28.5833 70.2132 29.0567 70.2132 29.71V29.75C70.2132 30.11 70.1265 30.4233 69.9532 30.69C69.7798 30.95 69.4898 31.1433 69.0832 31.27C69.5698 31.3767 69.9298 31.5667 70.1632 31.84C70.3965 32.1067 70.5132 32.48 70.5132 32.96V33C70.5132 33.6667 70.2998 34.1667 69.8732 34.5C69.4532 34.8333 68.8498 35 68.0632 35H65.3132V27.85ZM67.9032 34.05C68.3498 34.05 68.6765 33.9533 68.8832 33.76C69.0965 33.5667 69.2032 33.2833 69.2032 32.91V32.87C69.2032 32.4967 69.0932 32.22 68.8732 32.04C68.6598 31.8533 68.3065 31.76 67.8132 31.76H66.6132V34.05H67.9032ZM67.7132 30.86C68.1532 30.86 68.4665 30.7767 68.6532 30.61C68.8398 30.4433 68.9332 30.1767 68.9332 29.81V29.77C68.9332 29.43 68.8332 29.1833 68.6332 29.03C68.4332 28.8767 68.1198 28.8 67.6932 28.8H66.6132V30.86H67.7132ZM76.3387 29.77H77.5487V35H76.3387V29.77ZM71.6487 29.77H72.8587V31.49H73.7487C74.042 31.49 74.312 31.5267 74.5587 31.6C74.8054 31.6667 75.0154 31.7733 75.1887 31.92C75.3687 32.06 75.5087 32.24 75.6087 32.46C75.7087 32.68 75.7587 32.9367 75.7587 33.23V33.26C75.7587 33.84 75.572 34.2767 75.1987 34.57C74.8254 34.8567 74.332 35 73.7187 35H71.6487V29.77ZM73.5787 34.12C73.912 34.12 74.1554 34.0533 74.3087 33.92C74.4687 33.78 74.5487 33.5567 74.5487 33.25V33.22C74.5487 32.94 74.472 32.73 74.3187 32.59C74.172 32.4433 73.9254 32.37 73.5787 32.37H72.8587V34.12H73.5787ZM81.2925 35.1C80.9058 35.1 80.5491 35.04 80.2225 34.92C79.9025 34.7933 79.6225 34.6167 79.3825 34.39C79.1491 34.1567 78.9658 33.8767 78.8325 33.55C78.7058 33.2233 78.6425 32.8533 78.6425 32.44V32.36C78.6425 31.9533 78.7058 31.5867 78.8325 31.26C78.9658 30.9267 79.1491 30.6433 79.3825 30.41C79.6158 30.17 79.8891 29.9867 80.2025 29.86C80.5225 29.7267 80.8691 29.66 81.2425 29.66C81.5691 29.66 81.8791 29.71 82.1725 29.81C82.4725 29.91 82.7358 30.0667 82.9625 30.28C83.1891 30.4933 83.3691 30.7667 83.5025 31.1C83.6425 31.4333 83.7125 31.8333 83.7125 32.3V32.65H79.8825C79.9025 33.15 80.0325 33.5333 80.2725 33.8C80.5191 34.0667 80.8691 34.2 81.3225 34.2C81.6891 34.2 81.9691 34.13 82.1625 33.99C82.3558 33.85 82.4758 33.6533 82.5225 33.4H83.6925C83.6058 33.9533 83.3525 34.3767 82.9325 34.67C82.5125 34.9567 81.9658 35.1 81.2925 35.1ZM82.5125 31.84C82.4791 31.3867 82.3525 31.0567 82.1325 30.85C81.9191 30.6433 81.6225 30.54 81.2425 30.54C80.8758 30.54 80.5758 30.6567 80.3425 30.89C80.1091 31.1167 79.9625 31.4333 79.9025 31.84H82.5125ZM88.6032 31.1C88.6032 31.38 88.5232 31.6267 88.3632 31.84C88.2099 32.0467 87.9732 32.1833 87.6532 32.25C88.0132 32.31 88.2966 32.4367 88.5032 32.63C88.7099 32.8233 88.8132 33.0867 88.8132 33.42V33.45C88.8132 33.69 88.7632 33.91 88.6632 34.11C88.5632 34.31 88.4199 34.4833 88.2332 34.63C88.0466 34.7767 87.8199 34.8933 87.5532 34.98C87.2866 35.06 86.9899 35.1 86.6632 35.1C85.9632 35.1 85.4232 34.94 85.0432 34.62C84.6699 34.3 84.4566 33.8533 84.4032 33.28H85.5132C85.5666 33.5667 85.6799 33.79 85.8532 33.95C86.0266 34.1033 86.2932 34.18 86.6532 34.18C86.9666 34.18 87.1966 34.1167 87.3432 33.99C87.4899 33.8567 87.5632 33.6733 87.5632 33.44V33.41C87.5632 32.95 87.2666 32.72 86.6732 32.72H85.9532V31.91H86.5732C86.8466 31.91 87.0432 31.8567 87.1632 31.75C87.2899 31.6433 87.3532 31.48 87.3532 31.26V31.23C87.3532 31.05 87.2932 30.9033 87.1732 30.79C87.0599 30.67 86.8632 30.61 86.5832 30.61C86.0766 30.61 85.7632 30.8533 85.6432 31.34H84.5432C84.5766 31.04 84.6566 30.7833 84.7832 30.57C84.9099 30.3567 85.0666 30.1833 85.2532 30.05C85.4399 29.9167 85.6499 29.82 85.8832 29.76C86.1232 29.6933 86.3732 29.66 86.6332 29.66C86.9132 29.66 87.1732 29.6933 87.4132 29.76C87.6532 29.82 87.8599 29.91 88.0332 30.03C88.2132 30.15 88.3532 30.3 88.4532 30.48C88.5532 30.6533 88.6032 30.85 88.6032 31.07V31.1ZM91.3202 32.78C91.2869 33.0733 91.2469 33.3267 91.2002 33.54C91.1535 33.7533 91.0902 33.94 91.0102 34.1H93.0402V30.66H91.4502C91.4369 30.98 91.4202 31.3333 91.4002 31.72C91.3802 32.1067 91.3535 32.46 91.3202 32.78ZM90.3602 36.27H89.3302V34.1H89.6602C89.8469 34.0333 89.9769 33.88 90.0502 33.64C90.1302 33.3933 90.1935 33.08 90.2402 32.7C90.2669 32.48 90.2902 32.2367 90.3102 31.97C90.3302 31.6967 90.3469 31.4267 90.3602 31.16C90.3735 30.8933 90.3835 30.64 90.3902 30.4C90.3969 30.1533 90.4002 29.9433 90.4002 29.77H94.2402V34.1H95.0002V36.27H93.9702L93.9302 35H90.4002L90.3602 36.27ZM99.2572 32.78H97.0872V35H95.8772V29.77H97.0872V31.88H99.2572V29.77H100.467V35H99.2572V32.78ZM104.243 34.16C104.696 34.16 105.049 34.0067 105.303 33.7C105.556 33.3867 105.683 32.96 105.683 32.42V32.35C105.683 31.81 105.556 31.3867 105.303 31.08C105.049 30.7667 104.696 30.61 104.243 30.61C103.789 30.61 103.433 30.7633 103.173 31.07C102.919 31.3767 102.793 31.8 102.793 32.34V32.42C102.793 32.96 102.919 33.3867 103.173 33.7C103.426 34.0067 103.783 34.16 104.243 34.16ZM104.233 35.1C103.846 35.1 103.489 35.0367 103.163 34.91C102.836 34.7833 102.553 34.6033 102.313 34.37C102.073 34.1367 101.886 33.8567 101.753 33.53C101.619 33.2033 101.553 32.84 101.553 32.44V32.36C101.553 31.9533 101.619 31.5867 101.753 31.26C101.893 30.9267 102.083 30.6433 102.323 30.41C102.563 30.17 102.846 29.9867 103.173 29.86C103.499 29.7267 103.856 29.66 104.243 29.66C104.623 29.66 104.976 29.7233 105.303 29.85C105.629 29.9767 105.913 30.16 106.153 30.4C106.393 30.6333 106.579 30.9133 106.713 31.24C106.853 31.5667 106.923 31.93 106.923 32.33V32.41C106.923 32.8167 106.853 33.1867 106.713 33.52C106.579 33.8467 106.393 34.13 106.153 34.37C105.913 34.6033 105.629 34.7833 105.303 34.91C104.976 35.0367 104.619 35.1 104.233 35.1ZM110.326 28.93C109.906 28.93 109.566 28.8033 109.306 28.55C109.046 28.29 108.903 27.95 108.876 27.53H109.786C109.799 27.7033 109.846 27.8567 109.926 27.99C110.013 28.1167 110.146 28.18 110.326 28.18C110.513 28.18 110.649 28.1167 110.736 27.99C110.829 27.8567 110.886 27.7033 110.906 27.53H111.806C111.779 27.95 111.629 28.29 111.356 28.55C111.089 28.8033 110.746 28.93 110.326 28.93ZM108.016 35V29.77H109.226V33.47L111.486 29.77H112.686V35H111.486V31.3L109.226 35H108.016ZM118.882 35.1C118.482 35.1 118.116 35.0367 117.782 34.91C117.456 34.7833 117.172 34.59 116.932 34.33C116.699 34.07 116.519 33.74 116.392 33.34C116.266 32.94 116.202 32.4633 116.202 31.91V31.54C116.202 30.96 116.252 30.4233 116.352 29.93C116.459 29.4367 116.629 29.0067 116.862 28.64C117.096 28.2733 117.406 27.98 117.792 27.76C118.179 27.54 118.659 27.4167 119.232 27.39L119.552 27.38C119.932 27.36 120.246 27.3367 120.492 27.31C120.746 27.2833 120.949 27.2433 121.102 27.19V28.14C120.949 28.2067 120.756 28.26 120.522 28.3C120.296 28.34 119.966 28.3733 119.532 28.4L119.272 28.42C118.906 28.44 118.592 28.5133 118.332 28.64C118.079 28.76 117.869 28.9267 117.702 29.14C117.536 29.3467 117.406 29.6 117.312 29.9C117.226 30.1933 117.166 30.5233 117.132 30.89H117.182C117.356 30.55 117.602 30.2733 117.922 30.06C118.242 29.8467 118.652 29.74 119.152 29.74C119.512 29.74 119.842 29.8067 120.142 29.94C120.442 30.0667 120.696 30.2467 120.902 30.48C121.116 30.7133 121.279 30.99 121.392 31.31C121.512 31.63 121.572 31.9767 121.572 32.35V32.41C121.572 32.83 121.502 33.2067 121.362 33.54C121.229 33.8667 121.042 34.1467 120.802 34.38C120.562 34.6133 120.276 34.7933 119.942 34.92C119.616 35.04 119.262 35.1 118.882 35.1ZM118.892 34.16C119.346 34.16 119.699 34.01 119.952 33.71C120.206 33.4033 120.332 32.9733 120.332 32.42V32.38C120.332 31.8467 120.216 31.4333 119.982 31.14C119.749 30.84 119.402 30.69 118.942 30.69C118.476 30.69 118.109 30.8433 117.842 31.15C117.576 31.45 117.442 31.87 117.442 32.41V32.46C117.442 32.98 117.569 33.3933 117.822 33.7C118.076 34.0067 118.432 34.16 118.892 34.16ZM124.034 35.1C123.794 35.1 123.568 35.07 123.354 35.01C123.141 34.95 122.954 34.86 122.794 34.74C122.641 34.6133 122.518 34.4533 122.424 34.26C122.331 34.06 122.284 33.8233 122.284 33.55C122.284 33.2433 122.354 32.9867 122.494 32.78C122.634 32.5667 122.824 32.3967 123.064 32.27C123.304 32.1367 123.588 32.04 123.914 31.98C124.241 31.92 124.591 31.89 124.964 31.89H125.614V31.62C125.614 31.2667 125.544 31.0033 125.404 30.83C125.271 30.6567 125.024 30.57 124.664 30.57C124.344 30.57 124.104 30.6433 123.944 30.79C123.791 30.93 123.698 31.13 123.664 31.39H122.494C122.521 31.0833 122.598 30.8233 122.724 30.61C122.851 30.39 123.014 30.21 123.214 30.07C123.414 29.93 123.644 29.8267 123.904 29.76C124.164 29.6933 124.441 29.66 124.734 29.66C125.028 29.66 125.301 29.6933 125.554 29.76C125.808 29.82 126.028 29.9267 126.214 30.08C126.408 30.2267 126.558 30.4233 126.664 30.67C126.771 30.91 126.824 31.21 126.824 31.57V35H125.634V34.36C125.461 34.5867 125.251 34.7667 125.004 34.9C124.758 35.0333 124.434 35.1 124.034 35.1ZM124.324 34.23C124.698 34.23 125.004 34.14 125.244 33.96C125.491 33.7733 125.614 33.51 125.614 33.17V32.65H124.994C124.534 32.65 124.168 32.7133 123.894 32.84C123.621 32.96 123.484 33.18 123.484 33.5C123.484 33.72 123.548 33.8967 123.674 34.03C123.808 34.1633 124.024 34.23 124.324 34.23ZM128.211 29.77H129.421V30.61C129.495 30.4833 129.588 30.3633 129.701 30.25C129.815 30.1367 129.945 30.0367 130.091 29.95C130.245 29.8633 130.408 29.7933 130.581 29.74C130.755 29.6867 130.938 29.66 131.131 29.66C131.458 29.66 131.761 29.72 132.041 29.84C132.328 29.96 132.575 30.1333 132.781 30.36C132.988 30.5867 133.151 30.8667 133.271 31.2C133.391 31.5267 133.451 31.9 133.451 32.32V32.4C133.451 32.82 133.391 33.1967 133.271 33.53C133.158 33.8633 132.998 34.1467 132.791 34.38C132.591 34.6133 132.348 34.7933 132.061 34.92C131.781 35.04 131.471 35.1 131.131 35.1C130.711 35.1 130.355 35.01 130.061 34.83C129.775 34.65 129.561 34.4333 129.421 34.18V36.79H128.211V29.77ZM130.831 34.14C131.278 34.14 131.618 33.9967 131.851 33.71C132.091 33.4167 132.211 32.9867 132.211 32.42V32.34C132.211 32.0533 132.175 31.8033 132.101 31.59C132.035 31.37 131.938 31.1867 131.811 31.04C131.685 30.8933 131.538 30.7867 131.371 30.72C131.205 30.6467 131.021 30.61 130.821 30.61C130.401 30.61 130.055 30.7533 129.781 31.04C129.515 31.32 129.381 31.7533 129.381 32.34V32.42C129.381 33.0067 129.511 33.44 129.771 33.72C130.038 34 130.391 34.14 130.831 34.14ZM136.961 35V29.77H138.171V33.47L140.431 29.77H141.631V35H140.431V31.3L138.171 35H136.961ZM147.738 35.1C147.364 35.1 147.014 35.04 146.688 34.92C146.368 34.8 146.088 34.6267 145.848 34.4C145.614 34.1733 145.431 33.8967 145.298 33.57C145.164 33.2433 145.098 32.87 145.098 32.45V32.37C145.098 31.9567 145.164 31.5833 145.298 31.25C145.438 30.9167 145.628 30.6333 145.868 30.4C146.108 30.16 146.388 29.9767 146.708 29.85C147.028 29.7233 147.371 29.66 147.738 29.66C148.024 29.66 148.304 29.6967 148.578 29.77C148.851 29.8367 149.094 29.9467 149.308 30.1C149.528 30.2533 149.711 30.4567 149.858 30.71C150.004 30.9567 150.094 31.26 150.128 31.62H148.958C148.904 31.2667 148.771 31.0133 148.558 30.86C148.344 30.7067 148.078 30.63 147.758 30.63C147.551 30.63 147.361 30.67 147.188 30.75C147.014 30.8233 146.864 30.9367 146.738 31.09C146.611 31.2367 146.511 31.4167 146.438 31.63C146.371 31.8433 146.338 32.0833 146.338 32.35V32.43C146.338 33.0033 146.468 33.4367 146.728 33.73C146.988 34.0233 147.341 34.17 147.788 34.17C147.948 34.17 148.098 34.1467 148.238 34.1C148.384 34.0533 148.514 33.9833 148.628 33.89C148.741 33.7967 148.834 33.68 148.908 33.54C148.981 33.4 149.028 33.2367 149.048 33.05H150.158C150.138 33.35 150.064 33.6267 149.938 33.88C149.818 34.1267 149.654 34.3433 149.448 34.53C149.241 34.71 148.991 34.85 148.698 34.95C148.411 35.05 148.091 35.1 147.738 35.1ZM155.109 30.67H153.509V35H152.299V30.67H150.699V29.77H155.109V30.67ZM156.053 29.77H157.263V30.61C157.336 30.4833 157.43 30.3633 157.543 30.25C157.656 30.1367 157.786 30.0367 157.933 29.95C158.086 29.8633 158.25 29.7933 158.423 29.74C158.596 29.6867 158.78 29.66 158.973 29.66C159.3 29.66 159.603 29.72 159.883 29.84C160.17 29.96 160.416 30.1333 160.623 30.36C160.83 30.5867 160.993 30.8667 161.113 31.2C161.233 31.5267 161.293 31.9 161.293 32.32V32.4C161.293 32.82 161.233 33.1967 161.113 33.53C161 33.8633 160.84 34.1467 160.633 34.38C160.433 34.6133 160.19 34.7933 159.903 34.92C159.623 35.04 159.313 35.1 158.973 35.1C158.553 35.1 158.196 35.01 157.903 34.83C157.616 34.65 157.403 34.4333 157.263 34.18V36.79H156.053V29.77ZM158.673 34.14C159.12 34.14 159.46 33.9967 159.693 33.71C159.933 33.4167 160.053 32.9867 160.053 32.42V32.34C160.053 32.0533 160.016 31.8033 159.943 31.59C159.876 31.37 159.78 31.1867 159.653 31.04C159.526 30.8933 159.38 30.7867 159.213 30.72C159.046 30.6467 158.863 30.61 158.663 30.61C158.243 30.61 157.896 30.7533 157.623 31.04C157.356 31.32 157.223 31.7533 157.223 32.34V32.42C157.223 33.0067 157.353 33.44 157.613 33.72C157.88 34 158.233 34.14 158.673 34.14ZM162.381 35V29.77H163.591V33.47L165.851 29.77H167.051V35H165.851V31.3L163.591 35H162.381ZM172.356 30.67H170.756V35H169.546V30.67H167.946V29.77H172.356V30.67ZM179.361 29.67C179.748 29.69 180.108 29.76 180.441 29.88C180.774 30 181.064 30.1733 181.311 30.4C181.558 30.62 181.751 30.89 181.891 31.21C182.038 31.53 182.111 31.9 182.111 32.32V32.4C182.111 32.82 182.038 33.1933 181.891 33.52C181.751 33.8467 181.558 34.1233 181.311 34.35C181.064 34.5767 180.774 34.7533 180.441 34.88C180.108 35.0067 179.748 35.0767 179.361 35.09V36.79H178.171V35.09C177.784 35.07 177.421 35 177.081 34.88C176.748 34.76 176.458 34.59 176.211 34.37C175.964 34.15 175.768 33.88 175.621 33.56C175.481 33.2333 175.411 32.86 175.411 32.44V32.36C175.411 31.94 175.481 31.5667 175.621 31.24C175.768 30.9133 175.964 30.6367 176.211 30.41C176.458 30.1833 176.748 30.01 177.081 29.89C177.421 29.7633 177.784 29.69 178.171 29.67V27.35H179.361V29.67ZM179.361 34.21C179.814 34.1833 180.181 34.0167 180.461 33.71C180.741 33.4033 180.881 32.9767 180.881 32.43V32.36C180.881 31.7933 180.741 31.36 180.461 31.06C180.188 30.7533 179.821 30.5867 179.361 30.56V34.21ZM178.171 30.56C177.711 30.58 177.341 30.7433 177.061 31.05C176.781 31.3567 176.641 31.7833 176.641 32.33V32.41C176.641 32.9767 176.781 33.41 177.061 33.71C177.341 34.01 177.711 34.1733 178.171 34.2V30.56ZM184.575 34.47L182.505 29.77H183.815L185.205 33.14L186.485 29.77H187.665L184.815 36.79H183.625L184.575 34.47ZM189.67 32.78C189.636 33.0733 189.596 33.3267 189.55 33.54C189.503 33.7533 189.44 33.94 189.36 34.1H191.39V30.66H189.8C189.786 30.98 189.77 31.3333 189.75 31.72C189.73 32.1067 189.703 32.46 189.67 32.78ZM188.71 36.27H187.68V34.1H188.01C188.196 34.0333 188.326 33.88 188.4 33.64C188.48 33.3933 188.543 33.08 188.59 32.7C188.616 32.48 188.64 32.2367 188.66 31.97C188.68 31.6967 188.696 31.4267 188.71 31.16C188.723 30.8933 188.733 30.64 188.74 30.4C188.746 30.1533 188.75 29.9433 188.75 29.77H192.59V34.1H193.35V36.27H192.32L192.28 35H188.75L188.71 36.27Z" fill="#F82179"/>
<defs>
<linearGradient id="paint0_linear_247_6227" x1="31.5001" y1="37.0002" x2="31.5001" y2="2.00048" gradientUnits="userSpaceOnUse">
<stop stop-color="#F82179"/>
<stop offset="1" stop-color="#DD1C72"/>
</linearGradient>
</defs>
</svg>
